<svg width="18" height="9" viewBox="0 0 18 9" fill="none" xmlns="http://www.w3.org/2000/svg">
<path d="M16.9266 8.43757H4.81867C4.47468 7.997 4.21619 6.95878 4.21619 6.28981C4.21619 4.99429 5.26014 3.94072 6.54231 3.94072C6.65728 3.94072 6.77962 3.95157 6.91759 3.97414C7.0482 3.9958 7.1705 3.91095 7.19442 3.78366C7.48047 2.25612 8.80589 1.14747 10.3474 1.14747C11.5514 1.14747 12.6441 1.82093 13.1987 2.90519C13.2503 3.0045 13.3652 3.05597 13.4747 3.02708C13.7359 2.96208 13.9953 2.92869 14.2454 2.92869C15.9995 2.92869 17.4279 4.36954 17.4279 6.13993C17.4279 6.83689 17.2246 7.90492 16.9266 8.43757ZM0.572027 3.90189C0.572027 2.06018 2.09886 0.562454 3.9752 0.562454C5.34567 0.562454 6.57636 1.36322 7.11075 2.60186V2.60279C6.96266 2.87363 6.84583 3.16794 6.76857 3.4776L6.54231 3.46768C4.99433 3.46768 3.73425 4.73338 3.73425 6.28981C3.73425 6.55162 3.77104 6.88748 3.84186 7.23506C2.02806 7.16554 0.572027 5.69936 0.572027 3.90189ZM14.2454 2.4556C14.0146 2.4556 13.7782 2.48 13.5409 2.52785C12.8796 1.37949 11.6728 0.675304 10.3474 0.675304C9.16644 0.675304 8.09673 1.23866 7.4161 2.13243C6.74926 0.881155 5.43213 0.0884847 3.9752 0.0884847C1.83304 0.0884847 0.0900879 1.79927 0.0900879 3.90189C0.0900879 5.99999 1.82572 7.70718 3.96236 7.71441C4.09664 8.164 4.28795 8.58474 4.53353 8.83753L4.70828 8.91061H17.0618L17.2614 8.8068C17.7038 8.16311 17.9098 6.83418 17.9098 6.13993C17.9098 4.10863 16.2653 2.4556 14.2454 2.4556Z" fill="white"/>
<path d="M3.97525 0.650915C2.14857 0.650915 0.663155 2.10891 0.663155 3.90187C0.663155 5.61629 2.00234 7.01654 3.73152 7.14022C3.67541 6.83418 3.64417 6.53536 3.64417 6.28979C3.64417 4.68462 4.94379 3.37827 6.54236 3.37827L6.69964 3.38369C6.77322 3.11195 6.87806 2.84831 7.01051 2.59824C6.48164 1.41286 5.29513 0.650915 3.97525 0.650915ZM3.84191 7.32352H3.83912C1.95634 7.2522 0.48194 5.749 0.48194 3.90187C0.48194 2.01051 2.04924 0.473044 3.97525 0.473044C5.38159 0.473044 6.64538 1.29461 7.19357 2.56756L7.18989 2.6443C7.04272 2.91424 6.9305 3.20221 6.85692 3.49923L6.76036 3.56606L6.54236 3.55614C5.04404 3.55614 3.82444 4.78302 3.82444 6.28979C3.82444 6.55432 3.86212 6.88382 3.9311 7.21785L3.91089 7.29279L3.84191 7.32352ZM4.86471 8.34909H16.8724C17.1511 7.81102 17.3378 6.78722 17.3378 6.13992C17.3378 4.41738 15.9508 3.01803 14.2455 3.01803C14.0027 3.01803 13.7516 3.04963 13.4968 3.11373C13.3478 3.15165 13.1887 3.08126 13.1188 2.94494C12.5798 1.89137 11.5174 1.23681 10.3475 1.23681C8.85009 1.23681 7.56148 2.31476 7.28371 3.79987C7.25151 3.9723 7.08134 4.08875 6.90291 4.06167C6.77046 4.0391 6.65273 4.02918 6.54236 4.02918C5.30986 4.02918 4.30732 5.04393 4.30732 6.28979C4.30732 6.90821 4.54371 7.9022 4.86471 8.34909ZM16.9266 8.52603H4.81872L4.74695 8.49173C4.38088 8.02318 4.12611 6.95516 4.12611 6.28979C4.12611 4.94553 5.2096 3.85136 6.54236 3.85136C6.66377 3.85136 6.7907 3.86306 6.93326 3.88653C7.01788 3.89827 7.09056 3.84773 7.10527 3.76738C7.3996 2.19741 8.76271 1.05986 10.3475 1.05986C11.5864 1.05986 12.7104 1.7505 13.2797 2.86546L13.4517 2.94221C13.7203 2.8736 13.987 2.83928 14.2455 2.83928C16.0501 2.83928 17.5181 4.31987 17.5181 6.13992C17.5181 6.82514 17.3222 7.91481 17.0058 8.47996L16.9266 8.52603ZM3.97525 0.176945C1.88276 0.176945 0.181171 1.84801 0.181171 3.90187C0.181171 5.94852 1.87725 7.61872 3.9633 7.62504L4.04976 7.68913C4.196 8.18116 4.38549 8.55673 4.59888 8.77611L4.70833 8.82213H17.0619L17.1869 8.75715C17.6183 8.1288 17.8197 6.82334 17.8197 6.13992C17.8197 4.15737 16.2156 2.54406 14.2455 2.54406C14.0211 2.54406 13.7902 2.56844 13.5584 2.61358L13.4618 2.57024C12.8198 1.45619 11.6269 0.763764 10.3475 0.763764C9.21892 0.763764 8.17681 1.28197 7.48881 2.18567L7.40878 2.22089L7.33612 2.17302C6.68032 0.942506 5.39171 0.176945 3.97525 0.176945ZM17.0619 9H4.70833C4.61819 9 4.53083 8.963 4.46828 8.89799C4.19051 8.61361 4.00564 8.15678 3.89526 7.80198C1.74115 7.76045 0 6.02435 0 3.90187C0 1.7496 1.78342 -1.23306e-07 3.97525 -1.23306e-07C5.41286 -1.23306e-07 6.72355 0.752039 7.42994 1.97082C8.15196 1.08878 9.20696 0.585894 10.3475 0.585894C11.6701 0.585894 12.9054 1.29102 13.5869 2.42764C13.8086 2.38701 14.0293 2.36711 14.2455 2.36711C16.3159 2.36711 18 4.05987 18 6.13992C18 6.84591 17.7894 8.1965 17.3368 8.85554C17.2752 8.94582 17.1731 9 17.0619 9Z" fill="white"/>
</svg>
