<svg width="18" height="18" viewBox="0 0 18 18" fill="none" xmlns="http://www.w3.org/2000/svg">
<g clip-path="url(#clip0_179_951)">
<path d="M9.04114 4.58277C10.0995 4.58277 10.9575 3.72477 10.9575 2.66638C10.9575 1.60799 10.0995 0.75 9.04114 0.75C7.98275 0.75 7.12476 1.60799 7.12476 2.66638C7.12476 3.72477 7.98275 4.58277 9.04114 4.58277Z" stroke="white" stroke-width="0.6"/>
<path d="M15.3336 11.2243C16.392 11.2243 17.25 10.3663 17.25 9.30788C17.25 8.24949 16.392 7.39149 15.3336 7.39149C14.2752 7.39149 13.4172 8.24949 13.4172 9.30788C13.4172 10.3663 14.2752 11.2243 15.3336 11.2243Z" stroke="white" stroke-width="0.6"/>
<path d="M9.04114 17.4706C10.0995 17.4706 10.9575 16.6126 10.9575 15.5542C10.9575 14.4958 10.0995 13.6378 9.04114 13.6378C7.98275 13.6378 7.12476 14.4958 7.12476 15.5542C7.12476 16.6126 7.98275 17.4706 9.04114 17.4706Z" stroke="white" stroke-width="0.6"/>
<path d="M2.66638 14.6586C3.72477 14.6586 4.58277 13.8006 4.58277 12.7422C4.58277 11.6838 3.72477 10.8258 2.66638 10.8258C1.60799 10.8258 0.75 11.6838 0.75 12.7422C0.75 13.8006 1.60799 14.6586 2.66638 14.6586Z" stroke="white" stroke-width="0.6"/>
<path d="M2.66638 7.16429C3.72477 7.16429 4.58277 6.30629 4.58277 5.2479C4.58277 4.18951 3.72477 3.33152 2.66638 3.33152C1.60799 3.33152 0.75 4.18951 0.75 5.2479C0.75 6.30629 1.60799 7.16429 2.66638 7.16429Z" stroke="white" stroke-width="0.6"/>
<path d="M9.03789 10.0883C9.8926 10.0883 10.5855 9.39538 10.5855 8.54067C10.5855 7.68595 9.8926 6.99307 9.03789 6.99307C8.18318 6.99307 7.4903 7.68595 7.4903 8.54067C7.4903 9.39538 8.18318 10.0883 9.03789 10.0883Z" stroke="white" stroke-width="0.6"/>
<path d="M4.31604 4.26995L7.19062 3.16029" stroke="white" stroke-width="0.6"/>
<path d="M10.3845 4.03618L13.967 7.96444" stroke="white" stroke-width="0.6"/>
<path d="M14.1613 10.8225L10.4076 14.2108" stroke="white" stroke-width="0.6"/>
<path d="M3.72009 6.84819L7.8525 14.0527" stroke="white" stroke-width="0.6"/>
<path d="M4.36212 13.6346L7.12474 14.9154" stroke="white" stroke-width="0.6"/>
<path d="M3.38422 10.9641L8.00395 4.27655" stroke="white" stroke-width="0.6"/>
<path d="M4.43127 5.99866L7.66476 7.82614" stroke="white" stroke-width="0.6"/>
<path d="M10.5887 8.71518L13.4172 8.92921" stroke="white" stroke-width="0.6"/>
<path d="M9.0379 10.0916L9.0412 13.6346" stroke="white" stroke-width="0.6"/>
</g>
<defs>
<clipPath id="clip0_179_951">
<rect width="18" height="18" fill="white"/>
</clipPath>
</defs>
</svg>
