<svg width="20" height="10" viewBox="0 0 20 10" fill="none" xmlns="http://www.w3.org/2000/svg">
<path d="M19.6281 4.87256H1.18258L6.39948 0.635158C6.51826 0.538118 6.54305 0.354087 6.45319 0.225817C6.3623 0.0964317 6.1929 0.070776 6.07412 0.167814L0.208591 4.93165L0.190007 4.95175L0.175558 4.96623L0.12495 5.04654L0.120814 5.06217L0.10223 5.15808L0.101196 5.16589V5.16813V5.17259L0.120814 5.2685L0.127017 5.28748L0.177626 5.36778L0.188973 5.37781L0.220997 5.40792L6.30341 9.83937L6.45526 9.88959L6.67938 9.7613C6.76304 9.62745 6.72999 9.44566 6.60605 9.35531L1.25694 5.45814H19.6281C19.7769 5.45814 19.8988 5.32651 19.8988 5.16589C19.8988 5.00304 19.7769 4.87256 19.6281 4.87256Z" fill="white"/>
<path d="M0.277829 5.31759L6.36128 9.74904L6.59573 9.69994L6.55029 9.44674L1.20015 5.54845L1.15988 5.42578L1.25696 5.34768H19.6282C19.7211 5.34768 19.7976 5.26627 19.7976 5.16588C19.7976 5.06438 19.7211 4.98297 19.6282 4.98297H1.1826L1.08653 4.9071L1.12166 4.78554L6.33856 0.547055L6.40467 0.427701L6.37161 0.291626L6.26006 0.220226L6.13509 0.254809L0.270592 5.01976L0.190027 4.95174L0.250974 5.03986L0.217916 5.09004L0.204501 5.1603L0.203467 5.17146L0.215848 5.22835L0.250974 5.29191L0.221018 5.40791L0.277829 5.31759ZM6.45528 10L6.24664 9.93083L0.164206 5.49827L0.126004 5.46368L0.103285 5.4425L0.0361344 5.33319L0.0247873 5.30419L0 5.17593L0.00204249 5.13911L0.0258211 5.02311L0.101217 4.8915L0.121869 4.87031L0.148724 4.84355L6.01322 0.0796852C6.09172 0.0161085 6.18983 -0.0106544 6.28898 0.00384617C6.3871 0.0194616 6.47385 0.074132 6.53479 0.160017C6.59366 0.245903 6.6195 0.35074 6.60504 0.457818C6.59161 0.563781 6.53995 0.658574 6.46043 0.722152L1.48625 4.76321H19.6282C19.8327 4.76321 20 4.94392 20 5.16588C20 5.38673 19.8327 5.56743 19.6282 5.56743H1.5885L6.66389 9.26495C6.83431 9.38876 6.87875 9.63972 6.7641 9.82264C6.69387 9.93307 6.57819 10 6.45528 10Z" fill="white"/>
</svg>
