<svg width="14" height="14" viewBox="0 0 14 14" fill="none" xmlns="http://www.w3.org/2000/svg">
<path d="M13.7018 13.9188L13.5485 13.855L0.144977 0.451482C0.0604797 0.366985 0.0604797 0.229474 0.144977 0.144148C0.229474 0.059651 0.366985 0.059651 0.451482 0.144148L13.855 13.5485C13.9404 13.633 13.9404 13.7697 13.855 13.855L13.7018 13.9188Z" fill="white"/>
<path d="M0.298229 0.162381L0.202142 0.202142V0.394338L13.6065 13.7971H13.7979V13.6057L0.394317 0.202142L0.298229 0.162381ZM13.7018 14C13.6223 14 13.5469 13.9694 13.4905 13.9122L0.0869823 0.508647C-0.0289941 0.392671 -0.0289941 0.20296 0.0869823 0.0869831C0.203787 -0.0289933 0.392671 -0.0289933 0.509476 0.0869831L13.913 13.4897C14.029 13.6065 14.029 13.7971 13.913 13.9122C13.8567 13.9694 13.7813 14 13.7018 14Z" fill="white"/>
<path d="M0.298239 13.9188L0.144977 13.855C0.0604797 13.7697 0.0604797 13.633 0.144977 13.5485L13.5485 0.144148C13.633 0.059651 13.7705 0.059651 13.855 0.144148C13.9404 0.229474 13.9404 0.366985 13.855 0.451482L0.451482 13.855L0.298239 13.9188Z" fill="white"/>
<path d="M13.7018 0.16238L13.6065 0.202142L0.202142 13.6057V13.7971H0.394317L13.7979 0.394338V0.202142L13.7018 0.16238ZM0.298229 14C0.218702 14 0.143314 13.9694 0.0869823 13.9122C-0.0289941 13.7971 -0.0289941 13.6065 0.0869823 13.4897L13.4905 0.0869835C13.6073 -0.0289929 13.797 -0.0289929 13.913 0.0869835C14.029 0.20296 14.029 0.392672 13.913 0.508648L0.509476 13.9122C0.453144 13.9694 0.377756 14 0.298229 14Z" fill="white"/>
</svg>
