<svg width="17" height="12" viewBox="0 0 17 12" fill="none" xmlns="http://www.w3.org/2000/svg">
<path d="M0.518252 11.4834H15.6725V0.516661H0.518252V11.4834ZM15.8909 11.9166H0.300762C0.179928 11.9166 0.081604 11.8167 0.081604 11.6999V0.299995C0.081604 0.183328 0.179928 0.0833191 0.300762 0.0833191H15.8909C16.0117 0.0833191 16.1092 0.183328 16.1092 0.299995V11.6999C16.1092 11.8167 16.0117 11.9166 15.8909 11.9166Z" fill="white"/>
<path d="M0.601139 11.4001H15.5912V0.600018H0.601139V11.4001ZM15.6729 11.5667H0.518619L0.436953 11.4834V0.516684L0.518619 0.441682H15.6729L15.7546 0.516684V11.4834L15.6729 11.5667ZM0.301129 0.166676C0.225295 0.166676 0.16445 0.225018 0.16445 0.300018V11.6999C0.16445 11.7751 0.225295 11.8333 0.301129 11.8333H15.8912C15.9671 11.8333 16.0279 11.7751 16.0279 11.6999V0.300018C16.0279 0.225018 15.9671 0.166676 15.8912 0.166676H0.301129ZM15.8912 12H0.301129C0.135295 12 0.000305176 11.8669 0.000305176 11.6999V0.300018C0.000305176 0.13335 0.135295 8.06699e-06 0.301129 8.06699e-06H15.8912C16.0562 8.06699e-06 16.1912 0.13335 16.1912 0.300018V11.6999C16.1912 11.8669 16.0562 12 15.8912 12Z" fill="white"/>
<path d="M8.09586 7.72505L7.94754 7.66672L0.151639 0.466676C0.0641389 0.383342 0.0583348 0.241671 0.140002 0.150004C0.221669 0.0666697 0.359979 0.0583384 0.448313 0.141672L8.09586 7.20838L15.7426 0.141672C15.8309 0.0583384 15.9693 0.0666697 16.0518 0.150004C16.1334 0.241671 16.1276 0.383342 16.0392 0.466676L8.24422 7.66672L8.09586 7.72505Z" fill="white"/>
<path d="M0.300532 0.166666H0.294714L0.199702 0.208333L0.163853 0.30834L0.207189 0.400005L8.00309 7.60838H8.18807L15.9831 0.400005L15.9906 0.208333L15.8965 0.166666L15.7981 0.200002L8.15141 7.26672H8.03976L0.393022 0.200002L0.300532 0.166666ZM8.09558 7.80005C8.01975 7.80005 7.94723 7.77505 7.8914 7.72505L0.0963889 0.525006C-0.0252785 0.408339 -0.0327948 0.216673 0.0797059 0.100006C0.133873 0.0416718 0.20804 0.0083322 0.28804 -1.18019e-06C0.368041 -1.18019e-06 0.445528 0.024999 0.503862 0.0833327L8.09558 7.09171L15.6864 0.0833327C15.7456 0.024999 15.8223 -1.18019e-06 15.9023 -1.18019e-06C15.9823 0.0083322 16.0565 0.0416718 16.1115 0.100006C16.1656 0.158339 16.194 0.233338 16.1906 0.316671C16.1873 0.391672 16.1532 0.466672 16.0948 0.525006L8.29977 7.72505C8.2431 7.77505 8.17142 7.80005 8.09558 7.80005Z" fill="white"/>
</svg>
