<svg width="16" height="18" viewBox="0 0 16 18" fill="none" xmlns="http://www.w3.org/2000/svg">
<path d="M0.62543 8.94622C0.62543 4.95881 3.47356 1.59081 7.48486 0.709084C5.38772 2.50509 4.19942 4.80663 4.19942 7.1378C4.19942 12.0778 8.42085 16.0968 13.6094 16.0968C13.8849 16.0968 14.1543 16.0527 14.4177 15.9924C12.97 16.9086 11.269 17.4036 9.50762 17.4036C4.61061 17.4036 0.62543 13.6095 0.62543 8.94622ZM15.9006 15.3807L15.8996 15.3491L15.8935 15.3357L15.8724 15.2897L15.8453 15.2485L15.8382 15.2361L15.8101 15.216L15.7679 15.1863L15.7196 15.1691L15.6724 15.1576L15.6181 15.1585L15.5849 15.1595C15.3587 15.2083 15.1275 15.2753 14.9053 15.3404C14.477 15.4659 14.0327 15.5951 13.6094 15.5951C8.71139 15.5951 4.72722 11.8011 4.72722 7.1378C4.72722 4.71185 6.10755 2.30692 8.51534 0.539629C8.63095 0.455381 8.65208 0.298382 8.56261 0.188285C8.48017 0.086805 8.33338 0.0657562 8.21977 0.129899L8.04283 0.0935308C3.44039 0.779001 0.0986328 4.50215 0.0986328 8.94622C0.0986328 13.8862 4.32006 17.9052 9.50762 17.9052C11.846 17.9052 14.0869 17.0838 15.8191 15.5903L15.8392 15.5645L15.8714 15.5233L15.8895 15.4783L15.9016 15.4323L15.9006 15.3807Z" fill="white"/>
<path d="M7.13389 0.890049C3.34074 1.88858 0.724846 5.1503 0.724846 8.94623C0.724846 13.5578 4.66478 17.3097 9.50751 17.3097C11.0688 17.3097 12.5859 16.9182 13.926 16.1734C13.8154 16.1858 13.7108 16.1916 13.6093 16.1916C8.36645 16.1916 4.10079 12.1304 4.10079 7.13781C4.10079 4.8861 5.17549 2.68127 7.13389 0.890049ZM9.50751 17.4974C4.5552 17.4974 0.526797 13.6612 0.526797 8.94623C0.526797 4.93872 3.37895 1.5152 7.46264 0.617192L7.57223 0.666042L7.55011 0.778981C5.45398 2.57595 4.29883 4.8344 4.29883 7.13781C4.29883 12.0251 8.47503 16.0039 13.6093 16.0039C13.8425 16.0039 14.0918 15.9704 14.3945 15.9005L14.5081 15.9551L14.4729 16.0709C12.997 17.0034 11.2809 17.4974 9.50751 17.4974ZM8.07993 0.185445L8.05781 0.18638C3.50362 0.865149 0.197043 4.54812 0.197043 8.94623C0.197043 13.8345 4.37424 17.8114 9.50751 17.8114C11.8208 17.8114 14.0386 16.9977 15.7537 15.5204L15.7647 15.5032L15.7848 15.4783L15.7959 15.4496L15.8029 15.4228L15.8019 15.3902V15.3893L15.8009 15.3701L15.7999 15.3663L15.7869 15.3385L15.7688 15.307L15.7627 15.2993L15.7477 15.2887L15.7215 15.2696L15.6924 15.2591L15.6622 15.2505L15.628 15.2514L15.5989 15.2524C15.3847 15.2983 15.1555 15.3663 14.9353 15.4305C14.497 15.5587 14.0466 15.6889 13.6093 15.6889C8.65699 15.6889 4.62859 11.8538 4.62859 7.13781C4.62859 4.68218 6.023 2.25044 8.45492 0.465922L8.51724 0.361584L8.48508 0.245747L8.27093 0.210314H8.16839L8.07993 0.185445ZM9.50751 18C4.26466 18 0 13.937 0 8.94623C0 4.45525 3.37594 0.692854 8.02765 0.00163914L8.22067 0.0255732C8.36946 -0.0318685 8.54237 0.00926063 8.64089 0.130845C8.76254 0.282108 8.73339 0.4985 8.57555 0.614341C6.19189 2.36344 4.82563 4.74058 4.82563 7.13781C4.82563 11.7494 8.76557 15.5013 13.6093 15.5013C14.0175 15.5013 14.4528 15.374 14.874 15.2505C15.1012 15.1844 15.3334 15.1174 15.5627 15.0676L15.6089 15.0647L15.6853 15.0638L15.7507 15.0791L15.815 15.104L15.8733 15.1433L15.9105 15.171L15.9316 15.2026L15.9588 15.2447L15.9889 15.3117L15.999 15.372L16 15.4439L15.9839 15.507L15.9588 15.5674L15.9145 15.6248L15.8864 15.6593C14.1351 17.1681 11.8701 18 9.50751 18Z" fill="white"/>
</svg>
