<svg width="18" height="9" viewBox="0 0 18 9" fill="none" xmlns="http://www.w3.org/2000/svg">
<path d="M3.86562 8.43551C3.99485 5.81701 6.2484 3.72675 9 3.72675C11.7516 3.72675 14.0061 5.81701 14.1353 8.43551H3.86562ZM9 3.25024C5.89278 3.25024 3.36475 5.68267 3.36475 8.67239V8.9102H14.6362V8.67239C14.6362 5.68267 12.1072 3.25024 9 3.25024Z" fill="white"/>
<path d="M3.96372 8.34559H14.0372C13.8608 5.79788 11.6676 3.81471 9 3.81471C6.3333 3.81471 4.13917 5.79788 3.96372 8.34559ZM14.1353 8.52441H3.86562L3.7977 8.49627L3.77223 8.4309C3.90523 5.7425 6.20218 3.63682 9 3.63682C11.7988 3.63682 14.0947 5.7425 14.2277 8.4309L14.2023 8.49627L14.1353 8.52441ZM3.45718 8.82121H14.5428V8.67234C14.5428 5.73163 12.0563 3.33914 9 3.33914C5.94371 3.33914 3.45718 5.73163 3.45718 8.67234V8.82121ZM14.6362 8.99998H3.36474L3.27228 8.91015V8.67234C3.27228 5.6336 5.84184 3.16032 9 3.16032C12.1591 3.16032 14.7286 5.6336 14.7286 8.67234V8.91015L14.6362 8.99998Z" fill="white"/>
<path d="M8.75293 0.326787V2.21464C8.75293 2.34624 8.86331 2.45245 9.00008 2.45245C9.13686 2.45245 9.24722 2.34624 9.24722 2.21464V0.326787C9.24722 0.196089 9.13686 0.0898643 9.00008 0.0898643C8.86331 0.0898643 8.75293 0.196089 8.75293 0.326787Z" fill="white"/>
<path d="M9 0.178768C8.9151 0.178768 8.84528 0.245059 8.84528 0.326746V2.21459C8.84528 2.29719 8.9151 2.36346 9 2.36346C9.08489 2.36346 9.15469 2.29719 9.15469 2.21459V0.326746C9.15469 0.245059 9.08489 0.178768 9 0.178768ZM9 2.54224C8.81322 2.54224 8.6604 2.39521 8.6604 2.21459V0.326746C8.6604 0.147035 8.81322 -9.51192e-06 9 -9.51192e-06C9.18771 -9.51192e-06 9.33957 0.147035 9.33957 0.326746V2.21459C9.33957 2.39521 9.18771 2.54224 9 2.54224Z" fill="white"/>
<path d="M14.9494 2.59942L13.5618 3.93458C13.4656 4.02716 13.4656 4.1778 13.5618 4.27037L13.7363 4.34026L13.9108 4.27037L15.2984 2.93619C15.3946 2.8427 15.3946 2.69199 15.2984 2.59942C15.2022 2.50684 15.0456 2.50684 14.9494 2.59942Z" fill="white"/>
<path d="M15.1239 2.61941L15.0145 2.66297L13.6278 3.9972V4.20776H13.8457L15.2324 2.87353L15.2777 2.76827L15.2324 2.66297L15.1239 2.61941ZM13.7363 4.42921C13.6458 4.42921 13.5599 4.39565 13.4967 4.33393C13.3637 4.20596 13.3637 3.99901 13.4967 3.87103L14.8834 2.5368C15.0154 2.40882 15.2315 2.40882 15.3645 2.5368C15.4965 2.66387 15.4965 2.87172 15.3645 2.9997L13.9769 4.33393C13.9127 4.39565 13.8278 4.42921 13.7363 4.42921Z" fill="white"/>
<path d="M17.6604 8.42187H15.6983C15.5615 8.42187 15.4512 8.52894 15.4512 8.65964C15.4512 8.79124 15.5615 8.89745 15.6983 8.89745H17.6604C17.7971 8.89745 17.9075 8.79124 17.9075 8.65964C17.9075 8.52894 17.7971 8.42187 17.6604 8.42187Z" fill="white"/>
<path d="M15.6984 8.51175C15.6135 8.51175 15.5436 8.578 15.5436 8.65969C15.5436 8.74137 15.6135 8.80855 15.6984 8.80855H17.6604C17.7453 8.80855 17.8151 8.74137 17.8151 8.65969C17.8151 8.578 17.7453 8.51175 17.6604 8.51175H15.6984ZM17.6604 8.98644H15.6984C15.5106 8.98644 15.3588 8.84031 15.3588 8.65969C15.3588 8.47998 15.5106 8.33298 15.6984 8.33298H17.6604C17.8472 8.33298 18 8.47998 18 8.65969C18 8.84031 17.8472 8.98644 17.6604 8.98644Z" fill="white"/>
<path d="M2.30166 8.42187H0.340539C0.203761 8.42187 0.0933838 8.52894 0.0933838 8.65964C0.0933838 8.79124 0.203761 8.89745 0.340539 8.89745H2.30166C2.43843 8.89745 2.54879 8.79124 2.54879 8.65964C2.54879 8.52894 2.43843 8.42187 2.30166 8.42187Z" fill="white"/>
<path d="M0.34054 8.51175C0.2547 8.51175 0.185827 8.578 0.185827 8.65969C0.185827 8.74137 0.2547 8.80855 0.34054 8.80855H2.30166C2.3875 8.80855 2.45635 8.74137 2.45635 8.65969C2.45635 8.578 2.3875 8.51175 2.30166 8.51175H0.34054ZM2.30166 8.98644H0.34054C0.152824 8.98644 0 8.84031 0 8.65969C0 8.47998 0.152824 8.33298 0.34054 8.33298H2.30166C2.48937 8.33298 2.64218 8.47998 2.64218 8.65969C2.64218 8.84031 2.48937 8.98644 2.30166 8.98644Z" fill="white"/>
<path d="M4.26376 4.34026L4.43828 4.27037C4.53544 4.1778 4.53544 4.02716 4.43828 3.93458L3.05164 2.59942C2.95542 2.50684 2.79884 2.50684 2.70168 2.59942C2.60546 2.69199 2.60546 2.8427 2.70168 2.93619L4.08926 4.27037L4.26376 4.34026Z" fill="white"/>
<path d="M2.87707 2.61941L2.76765 2.66297L2.72238 2.76827L2.76765 2.87353L4.15429 4.20776H4.37315V3.9972L2.98556 2.66297L2.87707 2.61941ZM4.26371 4.42921C4.17315 4.42921 4.08733 4.39565 4.02319 4.33393L2.63652 2.9997C2.50446 2.87172 2.50446 2.66387 2.63652 2.5368C2.76858 2.40882 2.98461 2.40882 3.11761 2.5368L4.50425 3.87103C4.63631 3.99901 4.63631 4.20596 4.50425 4.33393C4.44011 4.39565 4.35426 4.42921 4.26371 4.42921Z" fill="white"/>
</svg>
