<svg width="18" height="18" viewBox="0 0 18 18" fill="none" xmlns="http://www.w3.org/2000/svg">
<path d="M9.00571 3.76373C6.17017 3.76373 3.86382 6.07009 3.86382 8.90469C3.86382 11.7393 6.17017 14.0457 9.00571 14.0457C11.8403 14.0457 14.1457 11.7393 14.1457 8.90469C14.1457 6.07009 11.8403 3.76373 9.00571 3.76373ZM9.00571 14.54C5.89851 14.54 3.37048 12.0119 3.37048 8.90469C3.37048 5.79748 5.89851 3.26947 9.00571 3.26947C12.1129 3.26947 14.6409 5.79748 14.6409 8.90469C14.6409 12.0119 12.1129 14.54 9.00571 14.54Z" fill="white"/>
<path d="M9.00565 3.85618C6.22105 3.85618 3.95715 6.12104 3.95715 8.9047C3.95715 11.6884 6.22105 13.9523 9.00565 13.9523C11.7884 13.9523 14.0532 11.6884 14.0532 8.9047C14.0532 6.12104 11.7884 3.85618 9.00565 3.85618ZM9.00565 14.1381C6.11918 14.1381 3.77132 11.7902 3.77132 8.9047C3.77132 6.01916 6.11918 3.67038 9.00565 3.67038C11.8912 3.67038 14.239 6.01916 14.239 8.9047C14.239 11.7902 11.8912 14.1381 9.00565 14.1381ZM9.00565 3.36192C5.94844 3.36192 3.46286 5.84843 3.46286 8.9047C3.46286 11.96 5.94844 14.4475 9.00565 14.4475C12.061 14.4475 14.5475 11.96 14.5475 8.9047C14.5475 5.84843 12.061 3.36192 9.00565 3.36192ZM9.00565 14.6324C5.84656 14.6324 3.27704 12.0629 3.27704 8.9047C3.27704 5.74655 5.84656 3.17607 9.00565 3.17607C12.1638 3.17607 14.7333 5.74655 14.7333 8.9047C14.7333 12.0629 12.1638 14.6324 9.00565 14.6324Z" fill="white"/>
<path d="M9.00008 2.54878C8.86331 2.54878 8.75293 2.43841 8.75293 2.30163V0.340558C8.75293 0.20378 8.86331 0.0924364 9.00008 0.0924364C9.13686 0.0924364 9.24816 0.20378 9.24816 0.340558V2.30163C9.24816 2.43841 9.13686 2.54878 9.00008 2.54878Z" fill="white"/>
<path d="M8.99999 0.185835C8.9151 0.185835 8.84528 0.254709 8.84528 0.340549V2.30162C8.84528 2.38746 8.9151 2.45633 8.99999 2.45633C9.08583 2.45633 9.15468 2.38746 9.15468 2.30162V0.340549C9.15468 0.254709 9.08583 0.185835 8.99999 0.185835ZM8.99999 2.64218C8.81322 2.64218 8.6604 2.48839 8.6604 2.30162V0.340549C8.6604 0.152833 8.81322 -1.41088e-05 8.99999 -1.41088e-05C9.18771 -1.41088e-05 9.34051 0.152833 9.34051 0.340549V2.30162C9.34051 2.48839 9.18771 2.64218 8.99999 2.64218Z" fill="white"/>
<path d="M9.00008 17.9076C8.86331 17.9076 8.75293 17.7962 8.75293 17.6595V15.6983C8.75293 15.5616 8.86331 15.4512 9.00008 15.4512C9.13686 15.4512 9.24816 15.5616 9.24816 15.6983V17.6595C9.24816 17.7962 9.13686 17.9076 9.00008 17.9076Z" fill="white"/>
<path d="M8.99999 15.5436C8.9151 15.5436 8.84528 15.6134 8.84528 15.6983V17.6594C8.84528 17.7453 8.9151 17.8151 8.99999 17.8151C9.08583 17.8151 9.15468 17.7453 9.15468 17.6594V15.6983C9.15468 15.6134 9.08583 15.5436 8.99999 15.5436ZM8.99999 18C8.81322 18 8.6604 17.8471 8.6604 17.6594V15.6983C8.6604 15.5115 8.81322 15.3588 8.99999 15.3588C9.18771 15.3588 9.34051 15.5115 9.34051 15.6983V17.6594C9.34051 17.8471 9.18771 18 8.99999 18Z" fill="white"/>
<path d="M13.7362 4.51086L13.5617 4.43823C13.4655 4.34201 13.4655 4.18541 13.5617 4.08919L14.9484 2.70161C15.0455 2.60539 15.2021 2.60539 15.2983 2.70161C15.3955 2.79877 15.3955 2.95535 15.2983 3.05157L13.9117 4.43823L13.7362 4.51086Z" fill="white"/>
<path d="M15.1238 2.72239L15.0144 2.76767L13.6277 4.15525V4.37316H13.8456L15.2323 2.98553V2.76767L15.1238 2.72239ZM13.7362 4.60332C13.6456 4.60332 13.5598 4.56839 13.4957 4.50424C13.3636 4.37218 13.3636 4.15616 13.4957 4.02315L14.8832 2.63654C15.0162 2.50353 15.2313 2.50353 15.3634 2.63654C15.4964 2.7686 15.4964 2.9846 15.3634 3.11666L13.9767 4.50424C13.9126 4.56839 13.8268 4.60332 13.7362 4.60332Z" fill="white"/>
<path d="M2.877 15.371L2.70251 15.2984C2.60535 15.2022 2.60535 15.0456 2.70251 14.9484L4.08914 13.5618C4.18536 13.4655 4.34194 13.4655 4.43816 13.5618C4.53532 13.658 4.53532 13.8146 4.43816 13.9117L3.05152 15.2984L2.877 15.371Z" fill="white"/>
<path d="M4.26382 13.5825L4.15533 13.6278L2.76775 15.0144V15.2323H2.98566L4.37324 13.8457L4.41851 13.7362L4.37324 13.6278L4.26382 13.5825ZM2.87716 15.4634C2.78567 15.4634 2.70079 15.4285 2.63664 15.3634C2.50458 15.2314 2.50458 15.0154 2.63664 14.8833L4.02328 13.4957C4.15628 13.3637 4.37134 13.3637 4.50434 13.4957C4.6364 13.6287 4.6364 13.8447 4.50434 13.9768L3.11676 15.3634C3.05356 15.4285 2.96772 15.4634 2.87716 15.4634Z" fill="white"/>
<path d="M17.6604 9.24809H15.6983C15.5615 9.24809 15.4512 9.13679 15.4512 9.00001C15.4512 8.86323 15.5615 8.75285 15.6983 8.75285H17.6604C17.7962 8.75285 17.9075 8.86323 17.9075 9.00001C17.9075 9.13679 17.7962 9.24809 17.6604 9.24809Z" fill="white"/>
<path d="M15.6984 8.84531C15.6135 8.84531 15.5436 8.91512 15.5436 9.00002C15.5436 9.08586 15.6135 9.15473 15.6984 9.15473H17.6604C17.7453 9.15473 17.8151 9.08586 17.8151 9.00002C17.8151 8.91512 17.7453 8.84531 17.6604 8.84531H15.6984ZM17.6604 9.34054H15.6984C15.5116 9.34054 15.3588 9.18774 15.3588 9.00002C15.3588 8.81325 15.5116 8.66043 15.6984 8.66043H17.6604C17.8472 8.66043 18 8.81325 18 9.00002C18 9.18774 17.8472 9.34054 17.6604 9.34054Z" fill="white"/>
<path d="M2.30165 9.24809H0.340543C0.203766 9.24809 0.0924683 9.13679 0.0924683 9.00001C0.0924683 8.86323 0.203766 8.75285 0.340543 8.75285H2.30165C2.43843 8.75285 2.54878 8.86323 2.54878 9.00001C2.54878 9.13679 2.43843 9.24809 2.30165 9.24809Z" fill="white"/>
<path d="M0.340539 8.84531C0.254699 8.84531 0.185849 8.91512 0.185849 9.00002C0.185849 9.08586 0.254699 9.15473 0.340539 9.15473H2.30165C2.38749 9.15473 2.45634 9.08586 2.45634 9.00002C2.45634 8.91512 2.38749 8.84531 2.30165 8.84531H0.340539ZM2.30165 9.34054H0.340539C0.152823 9.34054 0 9.18774 0 9.00002C0 8.81325 0.152823 8.66043 0.340539 8.66043H2.30165C2.48936 8.66043 2.64216 8.81325 2.64216 9.00002C2.64216 9.18774 2.48936 9.34054 2.30165 9.34054Z" fill="white"/>
<path d="M15.1238 15.371L14.9484 15.2984L13.5617 13.9117C13.4655 13.8146 13.4655 13.658 13.5617 13.5618C13.6579 13.4655 13.8145 13.4655 13.9117 13.5618L15.2983 14.9484C15.3955 15.0456 15.3955 15.2022 15.2983 15.2984L15.1238 15.371Z" fill="white"/>
<path d="M13.7362 13.5825L13.6277 13.6278L13.5825 13.7362L13.6277 13.8457L15.0144 15.2323H15.2323V15.0144L13.8456 13.6278L13.7362 13.5825ZM15.1238 15.4634C15.0323 15.4634 14.9474 15.4285 14.8832 15.3634L13.4957 13.9768C13.3636 13.8447 13.3636 13.6287 13.4957 13.4957C13.6287 13.3637 13.8447 13.3637 13.9767 13.4957L15.3634 14.8833C15.4964 15.0154 15.4964 15.2314 15.3634 15.3634C15.3002 15.4285 15.2143 15.4634 15.1238 15.4634Z" fill="white"/>
<path d="M4.26366 4.51086L4.08914 4.43823L2.70251 3.05157C2.60535 2.95535 2.60535 2.79877 2.70251 2.70161C2.79872 2.60539 2.95531 2.60539 3.05152 2.70161L4.43816 4.08919C4.53532 4.18541 4.53532 4.34201 4.43816 4.43823L4.26366 4.51086Z" fill="white"/>
<path d="M2.87716 2.72239L2.76775 2.76767V2.98553L4.15533 4.37316H4.37324V4.15525L2.98566 2.76767L2.87716 2.72239ZM4.26382 4.60332C4.17327 4.60332 4.08742 4.56839 4.02328 4.50424L2.63664 3.11666C2.50458 2.9846 2.50458 2.7686 2.63664 2.63654C2.76965 2.50353 2.9847 2.50353 3.11676 2.63654L4.50434 4.02315C4.6364 4.15616 4.6364 4.37218 4.50434 4.50424C4.4402 4.56839 4.35438 4.60332 4.26382 4.60332Z" fill="white"/>
</svg>
