<svg width="18" height="18" viewBox="0 0 18 18" fill="none" xmlns="http://www.w3.org/2000/svg">
<path d="M5.52284 14.6271C5.73168 14.6271 5.94239 14.6746 6.13889 14.7733C6.39329 14.9005 6.65719 15.0106 6.92584 15.1027C7.49635 15.2973 7.8808 15.8309 7.8808 16.4308V17.2406C7.8808 17.3336 7.95677 17.4096 8.0498 17.4096H9.94926C10.0432 17.4096 10.1192 17.3336 10.1192 17.2406V16.4308C10.1192 15.8309 10.5027 15.2973 11.0741 15.1027C11.3418 15.0106 11.6067 14.9005 11.8611 14.7733C12.3908 14.5085 13.0268 14.611 13.4425 15.0268L14.0339 15.6182H14.2741L15.6173 14.2749L15.6677 14.1553L15.6173 14.0347L15.0183 13.4358C14.6045 13.0209 14.501 12.3877 14.763 11.8589C14.8883 11.6045 14.9974 11.3396 15.0876 11.071C15.2803 10.5023 15.81 10.1198 16.4071 10.1198H17.2387C17.3327 10.1198 17.4095 10.0438 17.4095 9.94984V8.05028C17.4095 7.95725 17.3327 7.88035 17.2387 7.88035H16.391C15.7977 7.88035 15.269 7.50063 15.0744 6.93673C14.9842 6.67282 14.875 6.41267 14.7507 6.163C14.4858 5.63138 14.5874 4.99537 15.0032 4.57957L15.6173 3.96534L15.6677 3.84575L15.6173 3.72518L14.2741 2.38186H14.0339L13.4132 3.00369C12.9983 3.41854 12.3642 3.52106 11.8355 3.25905C11.5839 3.13564 11.3238 3.02836 11.0608 2.93912C10.4979 2.74736 10.1192 2.22241 10.1192 1.63098V0.760464C10.1192 0.66743 10.0432 0.590532 9.94926 0.590532H8.0498C7.95677 0.590532 7.8808 0.66743 7.8808 0.760464V1.63098C7.8808 2.22241 7.50205 2.74736 6.93914 2.93912C6.67524 3.02741 6.41513 3.13564 6.16452 3.25905C5.63578 3.52106 5.00166 3.41854 4.58683 3.00369L3.96508 2.38186H3.72586L2.38266 3.72518L2.33232 3.84575L2.38266 3.96534L2.99588 4.57957C3.41166 4.99537 3.51417 5.63233 3.24933 6.163C3.12497 6.41267 3.01582 6.6728 2.92469 6.93576C2.73104 7.5006 2.20133 7.88035 1.60804 7.88035H0.760378C0.6664 7.88035 0.590455 7.95725 0.590455 8.05028V9.94984C0.590455 10.0438 0.6664 10.1198 0.760378 10.1198H1.59289C2.18903 10.1198 2.71868 10.5023 2.91138 11.071C3.00251 11.3396 3.1117 11.6045 3.237 11.8589C3.49805 12.3877 3.39551 13.0209 2.98068 13.4358L2.38266 14.0347L2.33232 14.1553L2.38266 14.2749L3.72586 15.6182H3.96508L4.55744 15.0268C4.81849 14.7648 5.16781 14.6271 5.52284 14.6271ZM9.94926 17.907H8.0498C7.68243 17.907 7.38244 17.608 7.38244 17.2406V16.4308C7.38244 16.0435 7.1347 15.6989 6.76449 15.5736C6.47591 15.4749 6.19111 15.3553 5.91678 15.2186C5.57884 15.0496 5.17349 15.1141 4.90864 15.379L4.31725 15.9704C4.06475 16.222 3.62524 16.222 3.37369 15.9704L2.03049 14.6271C1.76944 14.367 1.76944 13.9427 2.03049 13.6825L2.62948 13.0845C2.89337 12.8206 2.9579 12.4162 2.79083 12.0792C2.65603 11.8048 2.53738 11.52 2.44055 11.2305C2.3162 10.8641 1.97544 10.6172 1.59289 10.6172H0.760378C0.393012 10.6172 0.0930176 10.3182 0.0930176 9.94984V8.05028C0.0930176 7.68289 0.393012 7.38288 0.760378 7.38288H1.60804C1.9887 7.38288 2.32948 7.13794 2.45478 6.77435C2.55161 6.49051 2.66933 6.21048 2.80413 5.94087C2.9731 5.60102 2.90855 5.19662 2.64371 4.93176L2.03049 4.31753C1.90423 4.19127 1.83493 4.02422 1.83493 3.84575C1.83493 3.66727 1.90423 3.49922 2.03049 3.37391L3.37369 2.03064C3.62524 1.77812 4.06475 1.77812 4.31725 2.03064L4.93808 2.6515C5.20197 2.91541 5.60637 2.98088 5.94431 2.81285C6.21485 2.67995 6.49584 2.56417 6.77872 2.46733C7.14039 2.34487 7.38244 2.00881 7.38244 1.63098V0.760464C7.38244 0.392128 7.68243 0.0930672 8.0498 0.0930672H9.94926C10.3176 0.0930672 10.6166 0.392128 10.6166 0.760464V1.63098C10.6166 2.00881 10.8596 2.34487 11.2213 2.46733C11.5041 2.56417 11.7852 2.67995 12.0547 2.81285C12.3936 2.98088 12.798 2.91539 13.0609 2.65242L13.6827 2.03064C13.9419 1.77053 14.3662 1.77053 14.6263 2.03064L15.9695 3.37391C16.0958 3.49922 16.1651 3.66727 16.1651 3.84575C16.1651 4.02422 16.0958 4.19127 15.9695 4.31753L15.3553 4.93176C15.0905 5.19567 15.0269 5.60102 15.1959 5.94087C15.3297 6.20953 15.4474 6.49051 15.5452 6.77435C15.6705 7.13794 16.0103 7.38288 16.391 7.38288H17.2387C17.607 7.38288 17.907 7.68289 17.907 8.05028V9.94984C17.907 10.3182 17.607 10.6172 17.2387 10.6172H16.4071C16.0245 10.6172 15.6838 10.8641 15.5594 11.2305C15.4617 11.52 15.3439 11.8048 15.2082 12.0792C15.0411 12.4162 15.1066 12.8206 15.3705 13.0845L15.9695 13.6825C16.2296 13.9427 16.2296 14.367 15.9695 14.6271L14.6263 15.9704C14.3662 16.2305 13.9428 16.2305 13.6827 15.9704L13.0913 15.379C12.8265 15.1141 12.4211 15.0496 12.0832 15.2186C11.8089 15.3553 11.5231 15.4749 11.2346 15.5736C10.8653 15.6989 10.6166 16.0435 10.6166 16.4308V17.2406C10.6166 17.608 10.3176 17.907 9.94926 17.907Z" fill="white"/>
<path d="M5.52285 14.5341C5.74877 14.5341 5.97657 14.5882 6.18066 14.6898C6.43032 14.8141 6.69138 14.9233 6.95528 15.0144C7.56471 15.2223 7.97384 15.791 7.97384 16.4308V17.2396L8.04981 17.3165H9.94927L10.0262 17.2396V16.4308C10.0262 15.791 10.4353 15.2223 11.0438 15.0144C11.3086 14.9233 11.5687 14.8141 11.8193 14.6898C12.3851 14.4078 13.0638 14.516 13.509 14.9603L14.1004 15.5527L14.2086 15.5518L15.5518 14.2084L15.5737 14.1553L15.5518 14.1012L14.9528 13.5021C14.5095 13.0588 14.4004 12.3819 14.6795 11.8171C14.8019 11.5684 14.9101 11.3073 15.0003 11.0415C15.2044 10.4349 15.7701 10.0267 16.4071 10.0267H17.2387L17.3156 9.9498V8.05024L17.2387 7.97427H16.391C15.7578 7.97427 15.194 7.5689 14.9861 6.96608C14.8968 6.70692 14.7896 6.45062 14.6671 6.2038C14.3843 5.63706 14.4934 4.95829 14.9376 4.51306L15.5518 3.89981L15.5737 3.84571L15.5518 3.79254L14.2086 2.44829L14.1545 2.42554H14.1536L14.1004 2.44829L13.4787 3.07008C13.0363 3.51246 12.3585 3.62164 11.7937 3.34254C11.5469 3.22103 11.2896 3.1147 11.0305 3.02641C10.4306 2.82326 10.0262 2.26224 10.0262 1.63095V0.760427L9.94927 0.684454H8.04981L7.97384 0.760427V1.63095C7.97384 2.26224 7.56946 2.82326 6.96858 3.02641C6.71038 3.1147 6.45405 3.22103 6.20629 3.34254C5.64148 3.62259 4.96373 3.51246 4.52042 3.07008L3.89959 2.44829L3.79136 2.44737L2.44816 3.79157L2.4254 3.84571L2.44816 3.89888L3.06236 4.51306C3.50661 4.95829 3.61574 5.63706 3.33286 6.2038C3.21041 6.45062 3.1022 6.70692 3.01392 6.96608C2.80603 7.5689 2.24121 7.97427 1.60805 7.97427H0.760386L0.684417 8.05024V9.9498L0.760386 10.0267H1.59289C2.22985 10.0267 2.79465 10.4349 2.99969 11.0415C3.08987 11.3073 3.19713 11.5684 3.32053 11.8171C3.60057 12.3819 3.49046 13.0588 3.04715 13.5021L2.44816 14.1012L2.4254 14.1553L2.44816 14.2084L3.79136 15.5527L3.8455 15.5736H3.84643L3.89959 15.5527L4.49098 14.9603C4.76627 14.6859 5.13175 14.5341 5.52285 14.5341ZM9.94927 17.5026H8.04981C7.90457 17.5026 7.78686 17.3849 7.78686 17.2396V16.4308C7.78686 15.8707 7.42897 15.3723 6.89548 15.1901C6.62304 15.097 6.35439 14.985 6.09714 14.8568C5.91867 14.7676 5.7203 14.7201 5.52285 14.7201C5.18206 14.7201 4.86216 14.853 4.62295 15.0923L4.03155 15.6837L3.84643 15.7596H3.8455L3.65945 15.6846L2.3162 14.3414L2.2393 14.1553L2.3162 13.9692L2.91519 13.3692C3.30154 12.9838 3.39744 12.3924 3.15348 11.8997C3.02723 11.6434 2.91617 11.3747 2.82314 11.1013C2.64373 10.5697 2.14917 10.2128 1.59289 10.2128H0.760386C0.615149 10.2128 0.497438 10.095 0.497438 9.9498V8.05024C0.497438 7.90595 0.615149 7.78728 0.760386 7.78728H1.60805C2.16147 7.78728 2.65606 7.43223 2.83737 6.90536C2.9285 6.6386 3.03861 6.37467 3.16581 6.1212C3.41262 5.62565 3.3177 5.0333 2.9304 4.64503L2.3162 4.0308L2.2393 3.84571L2.3162 3.65867L3.65945 2.3154C3.75438 2.22142 3.93471 2.22047 4.03058 2.3154L4.65331 2.93816C5.03871 3.32358 5.63012 3.41944 6.12374 3.17641C6.37814 3.05015 6.64299 2.94099 6.90879 2.84985C7.43373 2.67138 7.78686 2.1825 7.78686 1.63095V0.760427C7.78686 0.615182 7.90457 0.497465 8.04981 0.497465H9.94927C10.0945 0.497465 10.2131 0.615182 10.2131 0.760427V1.63095C10.2131 2.1825 10.5653 2.67233 11.0912 2.84985C11.358 2.94099 11.6219 3.05018 11.8763 3.17549C12.3699 3.41851 12.9603 3.32358 13.3467 2.93816L13.9684 2.31633L14.1536 2.23943L14.3406 2.3154L15.6838 3.65965L15.7607 3.84571L15.6838 4.0308L15.0696 4.64503C14.6823 5.0333 14.5874 5.62565 14.8342 6.1212C14.9604 6.37467 15.0706 6.6386 15.1626 6.90536C15.3439 7.43318 15.8376 7.78728 16.391 7.78728H17.2387C17.3839 7.78728 17.5026 7.90595 17.5026 8.05024V9.9498C17.5026 10.095 17.3839 10.2128 17.2387 10.2128H16.4071C15.8508 10.2128 15.3563 10.5697 15.1769 11.1013C15.0838 11.3747 14.9728 11.6443 14.8456 11.8997C14.6026 12.3924 14.6985 12.9838 15.0848 13.3692L15.6838 13.9692L15.7607 14.1553L15.6838 14.3414L14.3406 15.6837C14.2371 15.7862 14.07 15.7862 13.9684 15.6846L13.3771 15.0923C12.9888 14.704 12.3955 14.61 11.9029 14.8568C11.6447 14.985 11.377 15.097 11.1045 15.1901C10.571 15.3723 10.2131 15.8707 10.2131 16.4308V17.2396C10.2131 17.3849 10.0945 17.5026 9.94927 17.5026ZM5.52285 15.0315C5.66998 15.0315 5.81995 15.0657 5.95855 15.135C6.22814 15.2688 6.50913 15.3875 6.79486 15.4843C7.20209 15.6239 7.47645 16.0036 7.47645 16.4308V17.2396C7.47645 17.5567 7.7337 17.8139 8.04981 17.8139H9.94927C10.2663 17.8139 10.5236 17.5567 10.5236 17.2396V16.4308C10.5236 16.0036 10.797 15.6239 11.2042 15.4843C11.4909 15.3875 11.7719 15.2688 12.0415 15.135C12.4164 14.948 12.8645 15.0201 13.1568 15.3125L13.7482 15.9039C13.9723 16.127 14.3368 16.128 14.5608 15.9039L15.9031 14.5606C16.1271 14.3366 16.1271 13.973 15.9031 13.749L15.3041 13.15C15.0127 12.8576 14.9405 12.4114 15.1247 12.0374C15.2585 11.7668 15.3753 11.4858 15.4711 11.201C15.6078 10.7957 15.9837 10.5241 16.4071 10.5241H17.2387C17.5557 10.5241 17.813 10.2669 17.813 9.9498V8.05024C17.813 7.73412 17.5557 7.47588 17.2387 7.47588H16.391C15.9705 7.47588 15.5946 7.20629 15.4569 6.80473C15.361 6.52563 15.2452 6.24841 15.1123 5.9826C14.9253 5.60762 14.9965 5.15764 15.2898 4.86525L15.9031 4.25107C16.0113 4.14285 16.0711 3.99855 16.0711 3.84571C16.0711 3.69192 16.0113 3.5476 15.9031 3.43938L14.5608 2.0961C14.3358 1.87206 13.9723 1.87206 13.7482 2.0961L13.1265 2.71789C12.8351 3.00933 12.3879 3.08151 12.0139 2.89639C11.7472 2.76539 11.47 2.65049 11.1909 2.55556C10.7913 2.42075 10.5236 2.04864 10.5236 1.63095V0.760427C10.5236 0.444305 10.2663 0.186062 9.94927 0.186062H8.04981C7.7337 0.186062 7.47645 0.444305 7.47645 0.760427V1.63095C7.47645 2.04864 7.20873 2.42075 6.80909 2.55556C6.52905 2.65049 6.25282 2.76539 5.98608 2.89639C5.61207 3.08151 5.16497 3.00933 4.87259 2.71789L4.25084 2.0961C4.14832 1.99358 4.00023 1.93377 3.8455 1.93377C3.68982 1.93377 3.54266 1.99358 3.43919 2.0961L2.09691 3.43938C1.98775 3.5476 1.92797 3.69192 1.92797 3.84571C1.92797 3.99855 1.98777 4.14285 2.09599 4.25107L2.71018 4.86525C3.00351 5.15859 3.07467 5.60764 2.88766 5.98168C2.75476 6.24843 2.63896 6.52468 2.54309 6.80473C2.4045 7.20629 2.02858 7.47588 1.60805 7.47588H0.760386C0.444281 7.47588 0.187026 7.73412 0.187026 8.05024V9.9498C0.187026 10.2669 0.444281 10.5241 0.760386 10.5241H1.59289C2.01532 10.5241 2.39216 10.7957 2.52886 11.201C2.62379 11.4849 2.74056 11.7658 2.8744 12.0383C3.05951 12.4114 2.98733 12.8576 2.69591 13.15L2.09691 13.749C1.87194 13.973 1.87194 14.3366 2.09691 14.5606L3.43919 15.9039C3.54266 16.0065 3.68982 16.0663 3.8455 16.0663C4.00023 16.0663 4.1483 16.0065 4.25177 15.9039L4.84223 15.3125C5.02734 15.1284 5.27224 15.0315 5.52285 15.0315ZM9.94927 18H8.04981C7.63118 18 7.28942 17.6592 7.28942 17.2396V16.4308C7.28942 16.0833 7.06633 15.7748 6.73409 15.6609C6.44077 15.5612 6.15221 15.4406 5.87502 15.302C5.57221 15.1511 5.21051 15.209 4.97415 15.4444L4.38276 16.0359C4.24511 16.1735 4.04959 16.2523 3.8455 16.2523C3.64141 16.2523 3.44487 16.1735 3.30723 16.0359L1.96403 14.6926C1.66786 14.3964 1.66786 13.9141 1.96403 13.617L2.56302 13.018C2.79844 12.7826 2.85729 12.4218 2.70731 12.1199C2.56967 11.8418 2.45006 11.5523 2.35133 11.2608C2.24122 10.9314 1.93558 10.7112 1.59289 10.7112H0.760386C0.34176 10.7112 0 10.3694 0 9.9498V8.05024C0 7.63064 0.34176 7.28981 0.760386 7.28981H1.60805C1.94884 7.28981 2.25452 7.07052 2.36654 6.74396C2.46526 6.45631 2.58392 6.17248 2.72061 5.89907C2.87155 5.59529 2.81459 5.2336 2.57822 4.99722L1.96403 4.38299C1.82069 4.23965 1.74191 4.04886 1.74191 3.84571C1.74191 3.64256 1.82069 3.4517 1.96403 3.30741L3.30723 1.96413C3.44487 1.82648 3.64141 1.74771 3.8455 1.74771C4.04959 1.74771 4.24511 1.82648 4.38276 1.96413L5.00455 2.58596C5.23997 2.82139 5.60162 2.87928 5.90348 2.72929C6.17687 2.59448 6.46167 2.47678 6.74929 2.379C7.07204 2.26982 7.28942 1.9689 7.28942 1.63095V0.760427C7.28942 0.340829 7.63118 0 8.04981 0H9.94927C10.3688 0 10.7096 0.340829 10.7096 0.760427V1.63095C10.7096 1.9689 10.927 2.26982 11.2507 2.379C11.5383 2.47678 11.8222 2.59448 12.0965 2.72929C12.3984 2.87833 12.7601 2.82139 12.9945 2.58596L13.6163 1.96413C13.9124 1.66795 14.3956 1.66795 14.6918 1.96413L16.035 3.30741C16.1793 3.4517 16.2581 3.64256 16.2581 3.84571C16.2581 4.04886 16.1793 4.23967 16.035 4.38397L15.4218 4.99722C15.1854 5.2336 15.1275 5.59529 15.2794 5.89907C15.4151 6.17248 15.5347 6.45726 15.6335 6.74396C15.7455 7.07052 16.0502 7.28981 16.391 7.28981H17.2387C17.6583 7.28981 18 7.63064 18 8.05024V9.9498C18 10.3694 17.6583 10.7112 17.2387 10.7112H16.4071C16.0644 10.7112 15.7588 10.9314 15.6477 11.2608C15.549 11.5532 15.4294 11.8427 15.2927 12.1199C15.1427 12.4218 15.2006 12.7826 15.436 13.018L16.035 13.617C16.3321 13.9141 16.3321 14.3964 16.035 14.6926L14.6928 16.0359C14.3957 16.3321 13.9124 16.3321 13.6163 16.0359L13.0249 15.4444C12.7885 15.209 12.4278 15.1502 12.1241 15.302C11.8478 15.4406 11.5592 15.5612 11.2649 15.6609C10.9327 15.7748 10.7096 16.0833 10.7096 16.4308V17.2396C10.7096 17.6592 10.3688 18 9.94927 18Z" fill="white"/>
<path d="M9.00001 4.52544C6.53286 4.52544 4.52612 6.53326 4.52612 9.00053C4.52612 11.4669 6.53286 13.4747 9.00001 13.4747C11.4671 13.4747 13.4739 11.4669 13.4739 9.00053C13.4739 6.53326 11.4671 4.52544 9.00001 4.52544ZM9.00001 13.9721C6.25852 13.9721 4.02869 11.7422 4.02869 9.00053C4.02869 6.25891 6.25852 4.02895 9.00001 4.02895C11.7405 4.02895 13.9713 6.25891 13.9713 9.00053C13.9713 11.7422 11.7405 13.9721 9.00001 13.9721Z" fill="white"/>
<path d="M9.00009 4.61941C6.5842 4.61941 4.61923 6.58448 4.61923 9.0005C4.61923 11.4156 6.5842 13.3816 9.00009 13.3816C11.415 13.3816 13.38 11.4156 13.38 9.0005C13.38 6.58448 11.415 4.61941 9.00009 4.61941ZM9.00009 13.5677C6.48168 13.5677 4.43318 11.519 4.43318 9.0005C4.43318 6.48196 6.48168 4.43237 9.00009 4.43237C11.5185 4.43237 13.567 6.48196 13.567 9.0005C13.567 11.519 11.5185 13.5677 9.00009 13.5677ZM9.00009 4.12194C6.30987 4.12194 4.12179 6.31013 4.12179 9.0005C4.12179 11.6899 6.30987 13.8791 9.00009 13.8791C11.6903 13.8791 13.8784 11.6899 13.8784 9.0005C13.8784 6.31013 11.6903 4.12194 9.00009 4.12194ZM9.00009 14.0651C6.20735 14.0651 3.93481 11.7934 3.93481 9.0005C3.93481 6.20666 6.20735 3.93495 9.00009 3.93495C11.7928 3.93495 14.0644 6.20666 14.0644 9.0005C14.0644 11.7934 11.7928 14.0651 9.00009 14.0651Z" fill="white"/>
</svg>
