<svg width="14" height="14" viewBox="0 0 14 14" fill="none" xmlns="http://www.w3.org/2000/svg">
<g clip-path="url(#clip0_176_295)">
<path d="M0 0H14V14H0V0Z" fill="url(#paint0_linear_176_295)"/>
<path d="M10.25 8.247C10.207 8.36825 10.1618 8.484 10.114 8.595C10.0009 8.85033 9.86178 9.09329 9.69875 9.32C9.481 9.6225 9.30225 9.8315 9.1645 9.9475C8.95125 10.1385 8.7225 10.2362 8.4775 10.2415C8.30175 10.2415 8.09 10.193 7.843 10.0945C7.5955 9.99625 7.368 9.94775 7.16 9.94775C6.942 9.94775 6.708 9.99625 6.4575 10.0945C6.207 10.193 6.005 10.2445 5.85075 10.2495C5.61575 10.2593 5.382 10.159 5.14825 9.94775C4.99925 9.82125 4.81275 9.6045 4.58925 9.29775C4.3495 8.97025 4.1525 8.58975 3.99825 8.15625C3.83275 7.68825 3.75 7.235 3.75 6.79625C3.75 6.29375 3.86175 5.86025 4.0855 5.497C4.25648 5.21002 4.49862 4.97201 4.7885 4.806C5.07731 4.63844 5.40462 4.5486 5.7385 4.54525C5.925 4.54525 6.1695 4.6015 6.4735 4.7115C6.7765 4.82225 6.971 4.87825 7.0565 4.87825C7.12025 4.87825 7.3365 4.81275 7.70275 4.682C8.04925 4.56075 8.34175 4.5105 8.5815 4.53025C9.23075 4.58125 9.71825 4.83025 10.0428 5.27825C9.46225 5.62025 9.17525 6.099 9.18075 6.71325C9.186 7.192 9.3645 7.5905 9.7155 7.90675C9.87178 8.05135 10.0528 8.16661 10.25 8.247ZM8.617 2.75C8.622 2.8 8.6245 2.85025 8.6245 2.9C8.6245 3.275 8.48375 3.6255 8.203 3.9495C7.86375 4.335 7.4535 4.5575 7.0085 4.5225C7.00252 4.47532 6.99952 4.42781 6.9995 4.38025C6.9995 4.02025 7.16075 3.63475 7.44725 3.31975C7.59025 3.16025 7.77225 3.0275 7.99225 2.92175C8.21275 2.8175 8.42125 2.76 8.617 2.75Z" fill="white"/>
</g>
<defs>
<linearGradient id="paint0_linear_176_295" x1="2.6045" y1="2.428" x2="17.0367" y2="19.0043" gradientUnits="userSpaceOnUse">
<stop stop-color="#1A1E21"/>
<stop offset="1" stop-color="#06060A"/>
</linearGradient>
<clipPath id="clip0_176_295">
<rect width="14" height="14" rx="7" fill="white"/>
</clipPath>
</defs>
</svg>
