<svg width="14" height="14" viewBox="0 0 14 14" fill="none" xmlns="http://www.w3.org/2000/svg">
<g clip-path="url(#clip0_176_339)">
<path d="M0 0H14V14H0V0Z" fill="url(#paint0_linear_176_339)"/>
<path d="M9.9275 8.12625C9.713 7.8575 9.548 7.666 9.548 7.14925V5.43425C9.548 4.71075 9.4985 4.0335 8.963 3.53775C8.53375 3.1445 7.8275 3 7.27 3C6.091 3 5.0375 3.4765 4.7805 4.758C4.75875 4.90325 4.86575 4.96475 4.952 4.9855L6.0695 5.088C6.1765 5.088 6.241 4.98475 6.26275 4.88125C6.348 4.447 6.7355 4.08175 7.16425 4.08175C7.40025 4.08175 7.8655 4.31825 7.8655 4.81425V5.43425C7.17875 5.43425 6.4125 5.4805 5.81225 5.72825C5.10475 6.01825 4.5 6.57375 4.5 7.46275C4.5 8.5995 5.38 9.22075 6.323 9.22075C7.1165 9.22075 7.54875 9.01525 8.17 8.4155C8.36325 8.7055 8.48275 8.9105 8.847 9.2205C8.93325 9.26275 9.04025 9.26275 9.104 9.2005C9.31825 9.014 9.692 8.62225 9.92725 8.4365C10.0345 8.35325 10.0135 8.22975 9.92725 8.1265L9.9275 8.12625ZM7.8655 6.51625C7.8655 6.9295 7.784 7.96075 6.734 7.96075C6.19425 7.96075 6.18275 7.3275 6.18275 7.3275C6.18275 6.516 7.05075 6.2455 7.86525 6.2455V6.516L7.8655 6.51625Z" fill="white"/>
<path d="M10.2983 10.0347C9.41077 10.6335 8.08127 11 7.00427 11C5.46277 11 4.09052 10.4405 3.03477 9.57149C2.95077 9.49399 3.03477 9.41699 3.11977 9.45549C4.25977 10.0542 5.54777 10.4012 6.98277 10.4012C7.95427 10.4012 9.17902 10.208 10.1713 9.82199C10.3188 9.78349 10.4458 9.93824 10.2983 10.0347ZM10.615 9.62899C10.5093 9.49399 9.87602 9.57149 9.60127 9.59049C9.51627 9.59049 9.49577 9.53224 9.57977 9.47499C10.0655 9.14624 10.8888 9.24249 10.9735 9.35874C11.0578 9.47499 10.9523 10.2277 10.488 10.5755C10.4243 10.6335 10.3403 10.5942 10.3823 10.537C10.4878 10.3045 10.7205 9.76449 10.6148 9.62874L10.615 9.62899Z" fill="#FFB300"/>
</g>
<defs>
<linearGradient id="paint0_linear_176_339" x1="2.6045" y1="2.428" x2="17.0367" y2="19.0043" gradientUnits="userSpaceOnUse">
<stop stop-color="#1A1E21"/>
<stop offset="1" stop-color="#06060A"/>
</linearGradient>
<clipPath id="clip0_176_339">
<rect width="14" height="14" rx="7" fill="white"/>
</clipPath>
</defs>
</svg>
