<svg width="14" height="14" viewBox="0 0 14 14" fill="none" xmlns="http://www.w3.org/2000/svg">
<g clip-path="url(#clip0_176_411)">
<path d="M0 0H14V14H0V0Z" fill="#F7931A"/>
<path d="M9.98398 6.17601C10.1127 5.30251 9.45148 4.83676 8.54073 4.52051L8.83573 3.34351L8.11648 3.16451L7.82948 4.31251L7.25548 4.17526L7.54648 3.01901L6.82698 2.84026L6.53173 4.02151L6.07423 3.91326V3.90926L5.08023 3.65951L4.88873 4.42901C4.88873 4.42901 5.42123 4.55401 5.41273 4.55801C5.70398 4.63301 5.75398 4.82426 5.74573 4.97401L5.41273 6.32151L5.48773 6.34651L5.40873 6.32976L4.93873 8.21401C4.90548 8.30151 4.81373 8.43451 4.61023 8.38026C4.61848 8.39276 4.09023 8.25551 4.09023 8.25551L3.73273 9.07501L4.66848 9.30776L5.17998 9.44101L4.88048 10.6348L5.59998 10.8135L5.89123 9.63226L6.46923 9.78201L6.17423 10.959L6.89348 11.138L7.18873 9.94426C8.41573 10.177 9.33923 10.0858 9.72623 8.97501C10.038 8.08101 9.70948 7.56926 9.06473 7.22826C9.53473 7.12426 9.88823 6.81226 9.97973 6.17576H9.98398V6.17601ZM8.34098 8.48026C8.12048 9.37451 6.61498 8.88776 6.12848 8.77126L6.52348 7.18676C7.00998 7.31151 8.57398 7.54851 8.34098 8.47601V8.48026ZM8.56148 6.16351C8.36173 6.97451 7.10573 6.56276 6.70223 6.46301L7.05973 5.02801C7.46748 5.12801 8.77348 5.31926 8.56148 6.16351Z" fill="white"/>
</g>
<defs>
<clipPath id="clip0_176_411">
<rect width="14" height="14" rx="7" fill="white"/>
</clipPath>
</defs>
</svg>
