<svg width="14" height="14" viewBox="0 0 14 14" fill="none" xmlns="http://www.w3.org/2000/svg">
<g clip-path="url(#clip0_177_483)">
<path d="M0 0H14V14H0V0Z" fill="#EE1C25"/>
<path d="M5.60002 2.86999L2.03002 5.17999L3.50002 1.39999L4.76002 5.17999L1.40002 2.86999H5.60002Z" fill="#FFFF00"/>
<path d="M6.46888 0.903681L7.74093 1.52671L6.40943 1.75549L7.27256 0.747215L7.18944 2.1029L6.46888 0.903681Z" fill="#FFFF00"/>
<path d="M8.09022 2.13852L9.02021 3.20816L7.70374 2.90058L8.89199 2.30724L8.28748 3.52456L8.09022 2.13852Z" fill="#FFFF00"/>
<path d="M8.38288 4.17076L8.79527 5.52763L7.71856 4.70887L9.04623 4.65241L7.99678 5.51725L8.38288 4.17076Z" fill="#FFFF00"/>
<path d="M7.27368 5.62276L7.13053 7.03221L6.45398 5.86251L7.69928 6.32241L6.39868 6.71476L7.27368 5.62276Z" fill="#FFFF00"/>
</g>
<defs>
<clipPath id="clip0_177_483">
<rect width="14" height="14" rx="7" fill="white"/>
</clipPath>
</defs>
</svg>
