<svg width="14" height="14" viewBox="0 0 14 14" fill="none" xmlns="http://www.w3.org/2000/svg">
<g clip-path="url(#clip0_338_5)">
<path d="M0 0H14V14H0V0Z" fill="#13A3D7"/>
<path d="M5.1625 9C6.085 9 6.6975 8.52975 6.6975 7.83925V7.834C6.6975 7.3095 6.3145 6.9775 5.729 6.924V6.908C6.1915 6.81425 6.55275 6.50125 6.55275 6.0195V6.01425C6.55275 5.40675 6.00525 5 5.1545 5C4.3255 5 3.77 5.439 3.71525 6.10775L3.71275 6.14H4.47025L4.47325 6.116C4.506 5.816 4.76875 5.621 5.1545 5.621C5.543 5.621 5.77025 5.80825 5.77025 6.12125V6.1265C5.77025 6.43975 5.502 6.654 5.08875 6.654H4.64825V7.229H5.1C5.576 7.229 5.858 7.4325 5.858 7.80175V7.807C5.858 8.123 5.58425 8.345 5.16025 8.345C4.7335 8.345 4.45425 8.139 4.41875 7.86325L4.41325 7.834H3.625L3.6275 7.86875C3.6825 8.535 4.26825 9 5.1625 9ZM8.76625 9C9.7675 9 10.375 8.22725 10.375 6.999V6.99375C10.375 5.765 9.7675 5 8.76625 5C7.76475 5 7.15725 5.76525 7.15725 6.9935V6.999C7.15725 8.22725 7.76475 9 8.76625 9ZM8.76625 8.3475C8.27375 8.3475 7.99175 7.84725 7.99175 6.999V6.99375C7.99175 6.14525 8.27375 5.6475 8.76625 5.6475C9.25875 5.6475 9.5405 6.14525 9.5405 6.9935V6.999C9.5405 7.84725 9.25875 8.3475 8.76625 8.3475Z" fill="white"/>
</g>
<defs>
<clipPath id="clip0_338_5">
<rect width="14" height="14" rx="7" fill="white"/>
</clipPath>
</defs>
</svg>
