<svg width="14" height="14" viewBox="0 0 14 14" fill="none" xmlns="http://www.w3.org/2000/svg">
<g clip-path="url(#clip0_409_51)">
<path d="M0 0H14V14H0V0Z" fill="#06806B"/>
<path d="M6.995 10.775C7.575 10.775 8.09 10.69 8.5375 10.5125C9.395 10.17 10 9.45 10 8.5175V8.505C10 7.9225 9.7925 7.4675 9.4125 7.135C9.0375 6.805 8.4675 6.56 7.7075 6.4025L6.7675 6.2075C6.2775 6.1 5.6425 5.895 5.6425 5.3V5.29C5.6425 4.9275 5.9125 4.67 6.235 4.545C6.46955 4.45992 6.7181 4.42005 6.9675 4.4275C7.245 4.4275 7.485 4.4625 7.685 4.535C8.115 4.685 8.3225 4.9175 8.4175 5.3425H9.8775C9.77 4.4375 9.3175 3.8175 8.44 3.4725C7.97009 3.29374 7.47015 3.20716 6.9675 3.2175C6.4075 3.2175 5.9125 3.3075 5.4825 3.4875C4.675 3.825 4.115 4.5275 4.115 5.41V5.42C4.115 6.69 5.18 7.3 6.3175 7.535L7.2425 7.73C7.7125 7.83 8.03 7.9525 8.2 8.095C8.37 8.235 8.455 8.4225 8.455 8.6575V8.6675C8.455 9.055 8.2 9.3225 7.85 9.455C7.64 9.53 7.3725 9.5675 7.04 9.5675C6.75866 9.57581 6.47797 9.53608 6.21 9.45C6.01416 9.38629 5.83836 9.27253 5.7 9.12C5.57675 8.99244 5.49335 8.83172 5.46 8.6575H4C4.01607 9.07611 4.16986 9.47772 4.4375 9.8C4.71564 10.1309 5.07608 10.3827 5.4825 10.53C5.92 10.695 6.425 10.7775 6.995 10.7775V10.775ZM6.75 11.25H7.5V2.75H6.75V11.25Z" fill="white"/>
</g>
<defs>
<clipPath id="clip0_409_51">
<rect width="14" height="14" rx="7" fill="white"/>
</clipPath>
</defs>
</svg>
