<svg width="14" height="14" viewBox="0 0 14 14" fill="none" xmlns="http://www.w3.org/2000/svg">
<g clip-path="url(#clip0_176_458)">
<path d="M0 0H14V14H0V0Z" fill="url(#paint0_linear_176_458)"/>
<path d="M6.98 2.07001V5.47001L4.0625 7.08251L6.98 2.07001Z" fill="#E7F0FF"/>
<path d="M4.06248 7.0825L4.04498 7.1075L6.97998 8.97V5.47L4.06248 7.0825Z" fill="#A5B9EE"/>
<path d="M6.97998 2.07V5.47L9.94998 7.11H9.95248L6.99498 2.0425L6.97998 2.0675V2.07Z" fill="#A5B8F0"/>
<path d="M9.94998 7.11L6.99498 8.98L6.97998 8.97V5.47L9.94998 7.11Z" fill="#687FCB"/>
<path fill-rule="evenodd" clip-rule="evenodd" d="M6.94999 2.025C6.95408 2.01655 6.96047 2.00942 6.96843 2.00443C6.97639 1.99944 6.98559 1.9968 6.99499 1.9968C7.00438 1.9968 7.01358 1.99944 7.02154 2.00443C7.0295 2.00942 7.03589 2.01655 7.03999 2.025L9.99249 7.0825C9.99916 7.09352 10.0013 7.10669 9.99854 7.11926C9.99574 7.13184 9.9882 7.14285 9.97749 7.15L7.02249 9.02C7.01432 9.02538 7.00476 9.02824 6.99499 9.02824C6.98521 9.02824 6.97565 9.02538 6.96749 9.02L4.02499 7.15C4.01427 7.14285 4.00673 7.13184 4.00394 7.11926C4.00114 7.10669 4.00331 7.09352 4.00999 7.0825L6.94999 2.025ZM6.94999 2.22L4.17499 6.9825L6.94999 5.4275V2.22ZM6.94999 5.535L4.13999 7.11L6.94749 8.895V5.535H6.94999ZM7.04249 8.895V5.535L9.85999 7.11L7.04249 8.895ZM9.82499 6.9825L7.04249 5.425V2.22L9.82499 6.9825Z" fill="white"/>
<path d="M7.00002 11.955L4.02252 7.63751L6.99752 9.45251L9.97502 7.63751L7.00002 11.955Z" fill="#A8B9EF"/>
<path d="M7.00502 9.45001H7.00002L4.02252 7.63751L6.99752 11.955L7.00502 11.9475V9.44751V9.45001Z" fill="#E8F1FF"/>
<path fill-rule="evenodd" clip-rule="evenodd" d="M4.00999 7.70249C4.00235 7.69168 3.99868 7.67856 3.99959 7.66535C4.0005 7.65214 4.00594 7.63965 4.01499 7.62999C4.03499 7.60999 4.06499 7.60499 4.08999 7.61999L6.99999 9.39499L9.91249 7.61999C9.93749 7.60749 9.96499 7.60999 9.98499 7.62999C10.0025 7.64999 10.005 7.67999 9.98999 7.70249L7.03999 11.9775C7.0354 11.9842 7.02924 11.9897 7.02206 11.9935C7.01487 11.9973 7.00687 11.9992 6.99874 11.9992C6.99062 11.9992 6.98262 11.9973 6.97543 11.9935C6.96824 11.9897 6.96208 11.9842 6.95749 11.9775L4.00999 7.70249ZM6.95249 9.47749L4.18999 7.79499L6.94999 11.8V9.47749H6.95249ZM7.04749 11.8025V9.47749L9.80999 7.79499L7.04999 11.8L7.04749 11.8025Z" fill="white"/>
</g>
<defs>
<linearGradient id="paint0_linear_176_458" x1="7" y1="0" x2="7" y2="14" gradientUnits="userSpaceOnUse">
<stop stop-color="#465191"/>
<stop offset="0.36" stop-color="#32498F"/>
<stop offset="0.7" stop-color="#555E99"/>
<stop offset="1" stop-color="#4F5795"/>
</linearGradient>
<clipPath id="clip0_176_458">
<rect width="14" height="14" rx="7" fill="white"/>
</clipPath>
</defs>
</svg>
