<svg width="14" height="14" viewBox="0 0 14 14" fill="none" xmlns="http://www.w3.org/2000/svg">
<g clip-path="url(#clip0_177_261)">
<path d="M0 0H14V14H0V0Z" fill="#003399"/>
<path d="M7.00001 2.2261L6.7926 2.91746L7.13828 2.9866L7.00001 2.2261Z" fill="#FFCC00"/>
<path d="M6.99999 2.2261L7.2074 2.91746L6.86172 2.9866L6.99999 2.2261Z" fill="#FFCC00"/>
<path d="M7.65754 2.70382L6.93592 2.7202L6.97699 3.07033L7.65754 2.70382Z" fill="#FFCC00"/>
<path d="M7.65753 2.70381L7.0641 3.1147L6.89153 2.80731L7.65753 2.70381Z" fill="#FFCC00"/>
<path d="M7.40636 3.47677L7.16779 2.79554L6.84749 2.94279L7.40636 3.47677Z" fill="#FFCC00"/>
<path d="M7.40638 3.47678L6.83222 3.03937L7.07124 2.78026L7.40638 3.47678Z" fill="#FFCC00"/>
<path d="M6.34246 2.70382L7.06408 2.7202L7.02301 3.07033L6.34246 2.70382Z" fill="#FFCC00"/>
<path d="M6.34247 2.70381L6.9359 3.1147L7.10847 2.80731L6.34247 2.70381Z" fill="#FFCC00"/>
<path d="M6.59364 3.47677L6.83221 2.79554L7.15251 2.94279L6.59364 3.47677Z" fill="#FFCC00"/>
<path d="M6.59362 3.47678L7.16778 3.03937L6.92876 2.78026L6.59362 3.47678Z" fill="#FFCC00"/>
<path d="M7.00001 10.5224L6.7926 11.2138L7.13828 11.2829L7.00001 10.5224Z" fill="#FFCC00"/>
<path d="M6.99999 10.5224L7.2074 11.2138L6.86172 11.2829L6.99999 10.5224Z" fill="#FFCC00"/>
<path d="M7.65754 11.0001L6.93592 11.0165L6.97699 11.3666L7.65754 11.0001Z" fill="#FFCC00"/>
<path d="M7.65753 11.0001L7.0641 11.411L6.89153 11.1036L7.65753 11.0001Z" fill="#FFCC00"/>
<path d="M7.40636 11.7731L7.16779 11.0918L6.84749 11.2391L7.40636 11.7731Z" fill="#FFCC00"/>
<path d="M7.40638 11.7731L6.83222 11.3357L7.07124 11.0766L7.40638 11.7731Z" fill="#FFCC00"/>
<path d="M6.34246 11.0001L7.06408 11.0165L7.02301 11.3666L6.34246 11.0001Z" fill="#FFCC00"/>
<path d="M6.34247 11.0001L6.9359 11.411L7.10847 11.1036L6.34247 11.0001Z" fill="#FFCC00"/>
<path d="M6.59364 11.7731L6.83221 11.0918L7.15251 11.2391L6.59364 11.7731Z" fill="#FFCC00"/>
<path d="M6.59362 11.7731L7.16778 11.3357L6.92876 11.0766L6.59362 11.7731Z" fill="#FFCC00"/>
<path d="M2.85188 6.37427L2.64447 7.06563L2.99015 7.13476L2.85188 6.37427Z" fill="#FFCC00"/>
<path d="M2.85186 6.37427L3.05927 7.06563L2.71359 7.13476L2.85186 6.37427Z" fill="#FFCC00"/>
<path d="M3.5094 6.85198L2.78779 6.86837L2.82886 7.21849L3.5094 6.85198Z" fill="#FFCC00"/>
<path d="M3.50939 6.85197L2.91597 7.26287L2.74339 6.95547L3.50939 6.85197Z" fill="#FFCC00"/>
<path d="M3.25823 7.62493L3.01966 6.9437L2.69936 7.09095L3.25823 7.62493Z" fill="#FFCC00"/>
<path d="M3.25825 7.62495L2.68408 7.18754L2.92311 6.92842L3.25825 7.62495Z" fill="#FFCC00"/>
<path d="M2.19433 6.85198L2.91594 6.86837L2.87487 7.21849L2.19433 6.85198Z" fill="#FFCC00"/>
<path d="M2.19434 6.85197L2.78777 7.26287L2.96034 6.95547L2.19434 6.85197Z" fill="#FFCC00"/>
<path d="M2.44551 7.62493L2.68408 6.9437L3.00438 7.09095L2.44551 7.62493Z" fill="#FFCC00"/>
<path d="M2.44549 7.62495L3.01965 7.18754L2.78063 6.92842L2.44549 7.62495Z" fill="#FFCC00"/>
<path d="M4.57042 4.06385L5.14459 3.62644L4.90557 3.36732L4.57042 4.06385Z" fill="#FFCC00"/>
<path d="M4.57045 4.06384L4.80902 3.3826L5.12932 3.52986L4.57045 4.06384Z" fill="#FFCC00"/>
<path d="M4.31928 3.2909L4.91271 3.7018L5.08528 3.3944L4.31928 3.2909Z" fill="#FFCC00"/>
<path d="M4.31927 3.29091L5.04088 3.3073L4.99981 3.65742L4.31927 3.29091Z" fill="#FFCC00"/>
<path d="M4.97682 2.81317L4.76941 3.50453L5.11509 3.57367L4.97682 2.81317Z" fill="#FFCC00"/>
<path d="M4.9768 2.81317L5.1842 3.50453L4.83853 3.57367L4.9768 2.81317Z" fill="#FFCC00"/>
<path d="M5.38319 4.06385L4.80902 3.62644L5.04805 3.36732L5.38319 4.06385Z" fill="#FFCC00"/>
<path d="M5.38317 4.06384L5.14459 3.3826L4.8243 3.52986L5.38317 4.06384Z" fill="#FFCC00"/>
<path d="M5.63433 3.2909L5.0409 3.7018L4.86833 3.3944L5.63433 3.2909Z" fill="#FFCC00"/>
<path d="M5.63434 3.29091L4.91273 3.3073L4.9538 3.65742L5.63434 3.29091Z" fill="#FFCC00"/>
<path d="M3.84527 5.60177L3.60669 4.92054L3.28639 5.06779L3.84527 5.60177Z" fill="#FFCC00"/>
<path d="M3.84529 5.60178L3.27112 5.16437L3.51014 4.90526L3.84529 5.60178Z" fill="#FFCC00"/>
<path d="M3.03252 5.60175L3.60669 5.16434L3.36766 4.90523L3.03252 5.60175Z" fill="#FFCC00"/>
<path d="M3.03254 5.60174L3.27112 4.92051L3.59141 5.06776L3.03254 5.60174Z" fill="#FFCC00"/>
<path d="M2.78138 4.82881L3.37481 5.2397L3.54738 4.93231L2.78138 4.82881Z" fill="#FFCC00"/>
<path d="M2.78137 4.82882L3.50298 4.8452L3.46191 5.19533L2.78137 4.82882Z" fill="#FFCC00"/>
<path d="M4.09643 4.82881L3.503 5.2397L3.33043 4.93231L4.09643 4.82881Z" fill="#FFCC00"/>
<path d="M4.09644 4.82882L3.37483 4.8452L3.4159 5.19533L4.09644 4.82882Z" fill="#FFCC00"/>
<path d="M3.43889 4.35107L3.6463 5.04243L3.30062 5.11157L3.43889 4.35107Z" fill="#FFCC00"/>
<path d="M3.43891 4.35107L3.23151 5.04243L3.57719 5.11157L3.43891 4.35107Z" fill="#FFCC00"/>
<path d="M4.09717 8.9869L3.37556 9.00328L3.41663 9.35341L4.09717 8.9869Z" fill="#FFCC00"/>
<path d="M4.09716 8.98689L3.50373 9.39778L3.33116 9.09039L4.09716 8.98689Z" fill="#FFCC00"/>
<path d="M3.84606 9.75985L3.60748 9.07862L3.28719 9.22587L3.84606 9.75985Z" fill="#FFCC00"/>
<path d="M3.84608 9.75986L3.27191 9.32245L3.51094 9.06334L3.84608 9.75986Z" fill="#FFCC00"/>
<path d="M3.03331 9.75986L3.60748 9.32245L3.36846 9.06334L3.03331 9.75986Z" fill="#FFCC00"/>
<path d="M3.03334 9.75985L3.27191 9.07862L3.59221 9.22587L3.03334 9.75985Z" fill="#FFCC00"/>
<path d="M3.43969 8.50919L3.64709 9.20054L3.30142 9.26968L3.43969 8.50919Z" fill="#FFCC00"/>
<path d="M3.43971 8.50919L3.2323 9.20054L3.57798 9.26968L3.43971 8.50919Z" fill="#FFCC00"/>
<path d="M2.78216 8.9869L3.50377 9.00328L3.4627 9.35341L2.78216 8.9869Z" fill="#FFCC00"/>
<path d="M2.78217 8.98689L3.3756 9.39778L3.54817 9.09039L2.78217 8.98689Z" fill="#FFCC00"/>
<path d="M5.59766 10.3784L4.87605 10.3948L4.91712 10.7449L5.59766 10.3784Z" fill="#FFCC00"/>
<path d="M5.59765 10.3784L5.00422 10.7893L4.83165 10.4819L5.59765 10.3784Z" fill="#FFCC00"/>
<path d="M5.34655 11.1514L5.10797 10.4702L4.78768 10.6174L5.34655 11.1514Z" fill="#FFCC00"/>
<path d="M5.34657 11.1514L4.7724 10.714L5.01143 10.4549L5.34657 11.1514Z" fill="#FFCC00"/>
<path d="M4.5338 11.1514L5.10797 10.714L4.86895 10.4549L4.5338 11.1514Z" fill="#FFCC00"/>
<path d="M4.53382 11.1514L4.7724 10.4702L5.0927 10.6174L4.53382 11.1514Z" fill="#FFCC00"/>
<path d="M4.94018 9.90073L5.14758 10.5921L4.8019 10.6612L4.94018 9.90073Z" fill="#FFCC00"/>
<path d="M4.9402 9.90073L4.73279 10.5921L5.07847 10.6612L4.9402 9.90073Z" fill="#FFCC00"/>
<path d="M4.28265 10.3784L5.00426 10.3948L4.96319 10.7449L4.28265 10.3784Z" fill="#FFCC00"/>
<path d="M4.28266 10.3784L4.87609 10.7893L5.04866 10.4819L4.28266 10.3784Z" fill="#FFCC00"/>
<path d="M11.1481 6.37427L11.3555 7.06563L11.0099 7.13476L11.1481 6.37427Z" fill="#FFCC00"/>
<path d="M11.1481 6.37427L10.9407 7.06563L11.2864 7.13476L11.1481 6.37427Z" fill="#FFCC00"/>
<path d="M10.4906 6.85198L11.2122 6.86837L11.1711 7.21849L10.4906 6.85198Z" fill="#FFCC00"/>
<path d="M10.4906 6.85197L11.084 7.26287L11.2566 6.95547L10.4906 6.85197Z" fill="#FFCC00"/>
<path d="M10.7418 7.62493L10.9803 6.9437L11.3006 7.09095L10.7418 7.62493Z" fill="#FFCC00"/>
<path d="M10.7417 7.62495L11.3159 7.18754L11.0769 6.92842L10.7417 7.62495Z" fill="#FFCC00"/>
<path d="M11.8057 6.85198L11.0841 6.86837L11.1251 7.21849L11.8057 6.85198Z" fill="#FFCC00"/>
<path d="M11.8057 6.85197L11.2122 7.26287L11.0397 6.95547L11.8057 6.85197Z" fill="#FFCC00"/>
<path d="M11.5545 7.62493L11.3159 6.9437L10.9956 7.09095L11.5545 7.62493Z" fill="#FFCC00"/>
<path d="M11.5545 7.62495L10.9803 7.18754L11.2194 6.92842L11.5545 7.62495Z" fill="#FFCC00"/>
<path d="M9.42958 4.06385L8.85541 3.62644L9.09443 3.36732L9.42958 4.06385Z" fill="#FFCC00"/>
<path d="M9.42955 4.06384L9.19098 3.3826L8.87068 3.52986L9.42955 4.06384Z" fill="#FFCC00"/>
<path d="M9.68072 3.2909L9.08729 3.7018L8.91472 3.3944L9.68072 3.2909Z" fill="#FFCC00"/>
<path d="M9.68073 3.29091L8.95912 3.3073L9.00019 3.65742L9.68073 3.29091Z" fill="#FFCC00"/>
<path d="M9.02318 2.81317L9.23059 3.50453L8.88491 3.57367L9.02318 2.81317Z" fill="#FFCC00"/>
<path d="M9.0232 2.81317L8.8158 3.50453L9.16147 3.57367L9.0232 2.81317Z" fill="#FFCC00"/>
<path d="M8.61681 4.06385L9.19098 3.62644L8.95195 3.36732L8.61681 4.06385Z" fill="#FFCC00"/>
<path d="M8.61683 4.06384L8.85541 3.3826L9.1757 3.52986L8.61683 4.06384Z" fill="#FFCC00"/>
<path d="M8.36567 3.2909L8.9591 3.7018L9.13167 3.3944L8.36567 3.2909Z" fill="#FFCC00"/>
<path d="M8.36566 3.29091L9.08727 3.3073L9.0462 3.65742L8.36566 3.29091Z" fill="#FFCC00"/>
<path d="M10.1547 5.60177L10.3933 4.92054L10.7136 5.06779L10.1547 5.60177Z" fill="#FFCC00"/>
<path d="M10.1547 5.60178L10.7289 5.16437L10.4899 4.90526L10.1547 5.60178Z" fill="#FFCC00"/>
<path d="M10.9675 5.60175L10.3933 5.16434L10.6323 4.90523L10.9675 5.60175Z" fill="#FFCC00"/>
<path d="M10.9675 5.60174L10.7289 4.92051L10.4086 5.06776L10.9675 5.60174Z" fill="#FFCC00"/>
<path d="M11.2186 4.82881L10.6252 5.2397L10.4526 4.93231L11.2186 4.82881Z" fill="#FFCC00"/>
<path d="M11.2186 4.82882L10.497 4.8452L10.5381 5.19533L11.2186 4.82882Z" fill="#FFCC00"/>
<path d="M9.90357 4.82881L10.497 5.2397L10.6696 4.93231L9.90357 4.82881Z" fill="#FFCC00"/>
<path d="M9.90356 4.82882L10.6252 4.8452L10.5841 5.19533L9.90356 4.82882Z" fill="#FFCC00"/>
<path d="M10.5611 4.35107L10.3537 5.04243L10.6994 5.11157L10.5611 4.35107Z" fill="#FFCC00"/>
<path d="M10.5611 4.35107L10.7685 5.04243L10.4228 5.11157L10.5611 4.35107Z" fill="#FFCC00"/>
<path d="M9.90283 8.9869L10.6244 9.00328L10.5834 9.35341L9.90283 8.9869Z" fill="#FFCC00"/>
<path d="M9.90284 8.98689L10.4963 9.39778L10.6688 9.09039L9.90284 8.98689Z" fill="#FFCC00"/>
<path d="M10.1539 9.75985L10.3925 9.07862L10.7128 9.22587L10.1539 9.75985Z" fill="#FFCC00"/>
<path d="M10.1539 9.75986L10.7281 9.32245L10.4891 9.06334L10.1539 9.75986Z" fill="#FFCC00"/>
<path d="M10.9667 9.75986L10.3925 9.32245L10.6315 9.06334L10.9667 9.75986Z" fill="#FFCC00"/>
<path d="M10.9667 9.75985L10.7281 9.07862L10.4078 9.22587L10.9667 9.75985Z" fill="#FFCC00"/>
<path d="M10.5603 8.50919L10.3529 9.20054L10.6986 9.26968L10.5603 8.50919Z" fill="#FFCC00"/>
<path d="M10.5603 8.50919L10.7677 9.20054L10.422 9.26968L10.5603 8.50919Z" fill="#FFCC00"/>
<path d="M11.2178 8.9869L10.4962 9.00328L10.5373 9.35341L11.2178 8.9869Z" fill="#FFCC00"/>
<path d="M11.2178 8.98689L10.6244 9.39778L10.4518 9.09039L11.2178 8.98689Z" fill="#FFCC00"/>
<path d="M8.40234 10.3784L9.12395 10.3948L9.08288 10.7449L8.40234 10.3784Z" fill="#FFCC00"/>
<path d="M8.40235 10.3784L8.99578 10.7893L9.16835 10.4819L8.40235 10.3784Z" fill="#FFCC00"/>
<path d="M8.65345 11.1514L8.89203 10.4702L9.21232 10.6174L8.65345 11.1514Z" fill="#FFCC00"/>
<path d="M8.65343 11.1514L9.2276 10.714L8.98857 10.4549L8.65343 11.1514Z" fill="#FFCC00"/>
<path d="M9.4662 11.1514L8.89203 10.714L9.13105 10.4549L9.4662 11.1514Z" fill="#FFCC00"/>
<path d="M9.46618 11.1514L9.2276 10.4702L8.9073 10.6174L9.46618 11.1514Z" fill="#FFCC00"/>
<path d="M9.05982 9.90073L8.85242 10.5921L9.1981 10.6612L9.05982 9.90073Z" fill="#FFCC00"/>
<path d="M9.0598 9.90073L9.26721 10.5921L8.92153 10.6612L9.0598 9.90073Z" fill="#FFCC00"/>
<path d="M9.71735 10.3784L8.99574 10.3948L9.03681 10.7449L9.71735 10.3784Z" fill="#FFCC00"/>
<path d="M9.71734 10.3784L9.12391 10.7893L8.95134 10.4819L9.71734 10.3784Z" fill="#FFCC00"/>
</g>
<defs>
<clipPath id="clip0_177_261">
<rect width="14" height="14" rx="7" fill="white"/>
</clipPath>
</defs>
</svg>
