<svg width="14" height="14" viewBox="0 0 14 14" fill="none" xmlns="http://www.w3.org/2000/svg">
<g clip-path="url(#clip0_176_246)">
<path d="M14 0H0V14H14V0Z" fill="#CC0000"/>
<path d="M2.84407 6.99971C2.84407 6.71691 2.95641 6.44568 3.15639 6.24571C3.35636 6.04574 3.62758 5.9334 3.91039 5.9334H4.71959V5.32875H3.90304C3.68106 5.32467 3.46049 5.36487 3.25422 5.44699C3.04795 5.52912 2.86011 5.65153 2.70168 5.80707C2.54325 5.96261 2.41741 6.14816 2.33151 6.35289C2.2456 6.55762 2.20135 6.77741 2.20135 6.99943C2.20135 7.22145 2.2456 7.44124 2.33151 7.64597C2.41741 7.85069 2.54325 8.03625 2.70168 8.19179C2.86011 8.34733 3.04795 8.46974 3.25422 8.55187C3.46049 8.63399 3.68106 8.67419 3.90304 8.6701H5.47398C5.51507 8.66745 5.55379 8.64992 5.5829 8.62081C5.61202 8.59169 5.62954 8.55297 5.6322 8.51188V5.41747C5.63015 5.33756 5.6545 5.2592 5.7015 5.19453C5.74849 5.12986 5.8155 5.0825 5.89214 5.05977C5.98095 5.03889 6.07422 5.04904 6.15646 5.08851C6.2387 5.12799 6.30496 5.19442 6.34421 5.27676L7.32859 6.96524L8.27567 8.59947C8.32427 8.68423 8.39208 8.72322 8.4565 8.70571C8.48311 8.69793 8.50629 8.68133 8.52221 8.65863C8.53813 8.63593 8.54584 8.60849 8.54409 8.58082V5.41747C8.54241 5.33675 8.56766 5.25777 8.61585 5.193C8.66405 5.12823 8.73245 5.08135 8.81025 5.05977C8.89907 5.03813 8.99264 5.04792 9.07506 5.08748C9.15747 5.12704 9.22364 5.19393 9.26231 5.27676L10.1704 6.84205L11.1876 8.60004C11.2362 8.6848 11.3057 8.72379 11.3684 8.70627C11.395 8.6985 11.4182 8.68189 11.4341 8.6592C11.45 8.6365 11.4577 8.60906 11.456 8.58139V4.48395H10.8581V6.92738L9.80028 5.10215C9.15777 4.01154 7.9434 4.45513 7.9434 5.40108V6.92682L6.88669 5.10159C6.24419 4.01097 5.03152 4.45457 5.03152 5.40052V7.89537C5.03154 7.93937 5.01446 7.98166 4.98388 8.01329C4.9533 8.04493 4.91162 8.06343 4.86764 8.0649H3.91039C3.62778 8.0649 3.35673 7.95271 3.15679 7.75298C2.95685 7.55325 2.84437 7.28232 2.84407 6.99971Z" fill="white"/>
<path d="M11.7046 4.48395V8.58195C11.706 8.6293 11.698 8.67645 11.6811 8.72071C11.6642 8.76497 11.6388 8.80547 11.6063 8.8399C11.5737 8.87433 11.5347 8.902 11.4915 8.92135C11.4483 8.94069 11.4016 8.95133 11.3543 8.95265H11.3441C11.269 8.95041 11.1959 8.92783 11.1326 8.88733C11.0693 8.84683 11.0182 8.78992 10.9847 8.72266L9.96416 6.96467L9.05438 5.39939C9.00578 5.31575 8.93797 5.27563 8.87468 5.29315C8.84807 5.30093 8.82489 5.31753 8.80897 5.34023C8.79305 5.36292 8.78534 5.39037 8.78709 5.41803V8.58252C8.78877 8.66323 8.76352 8.74221 8.71533 8.80699C8.66713 8.87176 8.59873 8.91863 8.52094 8.94021C8.43213 8.96109 8.33886 8.95095 8.25662 8.91148C8.17438 8.872 8.10812 8.80557 8.06887 8.72322L7.11839 7.08673L6.14418 5.39939C6.09559 5.31575 6.02608 5.27563 5.96336 5.29315C5.9369 5.30107 5.91385 5.3176 5.89787 5.34013C5.8819 5.36266 5.87392 5.38988 5.8752 5.41747V8.51188C5.87161 8.61662 5.82802 8.716 5.75339 8.78958C5.67876 8.86315 5.57877 8.90533 5.47399 8.90744H3.90305C3.39589 8.90744 2.90951 8.70597 2.55089 8.34735C2.19227 7.98874 1.9908 7.50235 1.9908 6.99519C1.9908 6.48803 2.19227 6.00164 2.55089 5.64302C2.90951 5.28441 3.39589 5.08294 3.90305 5.08294H4.7196V4.48395H3.90475C3.25381 4.50785 2.6375 4.78325 2.18543 5.25222C1.73337 5.7212 1.48077 6.3472 1.48077 6.99858C1.48077 7.64996 1.73337 8.27596 2.18543 8.74493C2.6375 9.21391 3.25381 9.48931 3.90475 9.51321H5.48699C6.08937 9.51321 6.47702 9.15947 6.47702 8.50736V7.07091L7.53486 8.89162C8.17736 9.98223 9.39004 9.53129 9.39004 8.59269V7.07656L10.4467 8.89783C11.0892 9.98845 12.3019 9.53751 12.3019 8.5989V4.48395H11.7046Z" fill="white"/>
</g>
<defs>
<clipPath id="clip0_176_246">
<rect width="14" height="14" rx="7" fill="white"/>
</clipPath>
</defs>
</svg>
