<svg width="14" height="14" viewBox="0 0 14 14" fill="none" xmlns="http://www.w3.org/2000/svg">
<g clip-path="url(#clip0_176_350)">
<path d="M0 0H14V14H0V0Z" fill="#F0F3FA"/>
<path d="M10.922 6.4285H7V7.864H9.261C8.9305 8.79525 8.0445 9.4 7 9.4C6.68482 9.40003 6.37272 9.33798 6.08152 9.21738C5.79032 9.09678 5.52574 8.92 5.30287 8.69713C5.08 8.47426 4.90322 8.20968 4.78262 7.91848C4.66202 7.62728 4.59997 7.31518 4.6 7C4.6 5.67425 5.67425 4.6 7 4.6C7.58749 4.59956 8.15447 4.81597 8.59225 5.20775L9.7235 4.0765C9.0095 3.411 8.054 3 7 3C4.79075 3 3 4.79075 3 7C3 9.20925 4.79075 11 7 11C9.20925 11 11 9.20925 11 7C11 6.78375 10.9727 6.6825 10.922 6.4285Z" fill="#FFC107"/>
<path d="M3.461 5.13825L4.776 6.10225C5.131 5.222 5.992 4.6 7 4.6C7.58749 4.59956 8.15447 4.81597 8.59225 5.20775L9.7235 4.0765C9.0095 3.411 8.054 3 7 3C5.46325 3 4.13125 3.86725 3.461 5.13825Z" fill="#FF3D00"/>
<path d="M7.00003 11C8.03278 11 8.97203 10.6048 9.68203 9.96175L8.44378 8.91426C8.02861 9.22972 7.52145 9.40035 7.00003 9.4C5.95928 9.4 5.07653 8.73675 4.74378 7.811L3.43903 8.81575C4.10078 10.1108 5.44528 11 7.00003 11Z" fill="#4CAF50"/>
<path d="M10.922 6.4285H7V7.864H9.261C9.10225 8.3115 8.814 8.63275 8.443 8.914H8.44375L9.682 9.9615C9.5945 10.041 11 9 11 7C11 6.732 10.9727 6.6825 10.922 6.4285Z" fill="#1976D2"/>
</g>
<defs>
<clipPath id="clip0_176_350">
<rect width="14" height="14" rx="7" fill="white"/>
</clipPath>
</defs>
</svg>
