<svg width="14" height="14" viewBox="0 0 14 14" fill="none" xmlns="http://www.w3.org/2000/svg">
<g clip-path="url(#clip0_176_250)">
<path d="M0 0H14V14H0V0Z" fill="#C4162E"/>
<path d="M3.25725 9C4.1765 9 4.81175 8.465 4.81175 7.6525V7.647C4.81175 6.91525 4.26 6.3855 3.49675 6.3855C3.09 6.3855 2.7585 6.544 2.59125 6.805H2.575L2.6725 5.713H4.52975V5H2.0035L1.81975 7.34575H2.55225C2.59975 7.265 2.66375 7.18975 2.74475 7.13075C2.881 7.02575 3.0565 6.9665 3.26275 6.9665C3.69725 6.9665 4.0065 7.25425 4.00925 7.66325V7.6685C4.00925 8.08275 3.70025 8.3735 3.26 8.3735C2.8725 8.3735 2.59125 8.1475 2.53275 7.85425L2.52725 7.83525H1.75L1.75275 7.87575C1.80275 8.524 2.38225 9 3.25725 9ZM6.8675 9C7.8875 9 8.50575 8.24425 8.50575 7.0095V7.00425C8.50575 5.76925 7.88725 5 6.86775 5C5.848 5 5.2295 5.7695 5.2295 7.00425V7.0095C5.2295 8.2445 5.848 9 6.86775 9H6.8675ZM6.8675 8.36525C6.36625 8.36525 6.07925 7.86225 6.07925 7.0095V7.00425C6.07925 6.15125 6.36625 5.651 6.86775 5.651C7.36925 5.651 7.656 6.1515 7.656 7.00425V7.0095C7.656 7.86225 7.36925 8.36525 6.86775 8.36525H6.8675ZM10.612 9C11.6315 9 12.25 8.24425 12.25 7.0095V7.00425C12.25 5.769 11.6315 5 10.612 5C9.59225 5 8.97375 5.7695 8.97375 7.00425V7.0095C8.97375 8.2445 9.59225 9 10.612 9ZM10.612 8.36525C10.1105 8.36525 9.8235 7.86225 9.8235 7.0095V7.00425C9.8235 6.15125 10.1105 5.651 10.612 5.651C11.1133 5.651 11.4003 6.1515 11.4003 7.00425V7.0095C11.4003 7.86225 11.1133 8.36525 10.612 8.36525Z" fill="white"/>
</g>
<defs>
<clipPath id="clip0_176_250">
<rect width="14" height="14" rx="7" fill="white"/>
</clipPath>
</defs>
</svg>
