<svg width="14" height="14" viewBox="0 0 14 14" fill="none" xmlns="http://www.w3.org/2000/svg">
<g clip-path="url(#clip0_176_259)">
<path d="M0 0H14V14H0V0Z" fill="#0090BA"/>
<path fill-rule="evenodd" clip-rule="evenodd" d="M8.82325 4H10.5L8.9425 8.29925C8.92171 8.35712 8.88357 8.40717 8.83327 8.44257C8.78298 8.47796 8.723 8.49697 8.6615 8.497H7.015V8.4945C7.13075 8.48275 7.2275 8.40525 7.2655 8.29925L8.82325 4ZM6.881 8.43125C6.82581 8.43119 6.77184 8.41496 6.72577 8.38457C6.6797 8.35418 6.64353 8.31096 6.62175 8.26025L6.28625 7.33525L6.8575 5.7585C6.867 5.72975 6.88925 5.696 6.8945 5.6885C6.92357 5.6472 6.9632 5.61446 7.00925 5.59373C7.05531 5.573 7.10609 5.56502 7.15628 5.57065C7.20647 5.57627 7.25423 5.59528 7.29456 5.62569C7.33488 5.6561 7.36629 5.69679 7.3855 5.7435L7.71975 6.6645L7.14825 8.242C7.13525 8.278 7.1165 8.3045 7.11125 8.312C7.06 8.384 6.976 8.43125 6.881 8.43125ZM7.003 5.50325V5.50425C6.87925 5.50925 6.7745 5.58925 6.7345 5.701L5.177 10H3.5L5.0575 5.701C5.09925 5.5855 5.20925 5.50325 5.3385 5.50325H7.003Z" fill="white"/>
</g>
<defs>
<clipPath id="clip0_176_259">
<rect width="14" height="14" rx="7" fill="white"/>
</clipPath>
</defs>
</svg>
