<svg width="14" height="14" viewBox="0 0 14 14" fill="none" xmlns="http://www.w3.org/2000/svg">
<g clip-path="url(#clip0_176_684)">
<path fill-rule="evenodd" clip-rule="evenodd" d="M0 0H14V14H0V0Z" fill="white"/>
<path fill-rule="evenodd" clip-rule="evenodd" d="M0.600891 4.58136L2.30769 2.02213L2.73423 2.30659L1.02743 4.86583L0.600891 4.58136ZM1.2407 5.00806L2.9475 2.44883L3.37404 2.73329L1.66724 5.29253L1.2407 5.00806ZM1.88051 5.43476L3.5873 2.87552L4.01384 3.15999L2.30705 5.71922L1.88051 5.43476Z" fill="#000001"/>
<path fill-rule="evenodd" clip-rule="evenodd" d="M9.98474 10.8396L11.6915 8.2804L12.1181 8.56486L10.4113 11.1241L9.98474 10.8396ZM10.6245 11.2663L12.3313 8.7071L12.7579 8.99156L11.0511 11.5508L10.6245 11.2663ZM11.2644 11.693L12.9712 9.13379L13.3977 9.41826L11.6909 11.9775L11.2644 11.693Z" fill="#000001"/>
<path fill-rule="evenodd" clip-rule="evenodd" d="M10.6249 9.41776L12.7576 10.8401L10.6249 9.41776Z" fill="black"/>
<path d="M10.6249 9.41776L12.7576 10.8401" stroke="white" stroke-width="0.3"/>
<path fill-rule="evenodd" clip-rule="evenodd" d="M4.44006 5.293C4.89273 4.61425 5.5965 4.14312 6.39653 3.98326C7.19657 3.82339 8.02734 3.98789 8.70609 4.44056C9.38485 4.89323 9.85597 5.597 10.0158 6.39703C10.1757 7.19707 10.0112 8.02784 9.55853 8.70659L4.44006 5.293Z" fill="#CD2E3A"/>
<path fill-rule="evenodd" clip-rule="evenodd" d="M4.44007 5.293C3.9874 5.97175 3.82291 6.80252 3.98277 7.60256C4.14263 8.4026 4.61376 9.10636 5.29251 9.55903C5.97126 10.0117 6.80203 10.1762 7.60207 10.0163C8.40211 9.85647 9.10587 9.38534 9.55854 8.70659C9.78488 8.36722 9.86713 7.95183 9.78719 7.55181C9.70726 7.1518 9.4717 6.79991 9.13232 6.57358C8.79295 6.34724 8.37756 6.26499 7.97754 6.34493C7.57752 6.42486 7.22564 6.66042 6.99931 6.9998L4.44007 5.293Z" fill="#0047A0"/>
<path d="M6.9993 6.99978C7.47062 6.29307 7.2798 5.33808 6.57308 4.86677C5.86637 4.39545 4.91139 4.58627 4.44007 5.29298C3.96875 5.9997 4.15957 6.95468 4.86629 7.426C5.573 7.89732 6.52798 7.70649 6.9993 6.99978Z" fill="#CD2E3A"/>
<path fill-rule="evenodd" clip-rule="evenodd" d="M2.30908 11.9775L0.602285 9.41824L1.02882 9.13378L2.73562 11.693L2.30908 11.9775ZM2.94889 11.5508L1.24209 8.99154L1.66863 8.70708L3.37543 11.2663L2.94889 11.5508ZM3.5887 11.1241L1.8819 8.56485L2.30844 8.28038L4.01524 10.8396L3.5887 11.1241Z" fill="#000001"/>
<path fill-rule="evenodd" clip-rule="evenodd" d="M11.6929 5.71921L9.98614 3.15997L10.4127 2.87551L12.1195 5.43474L11.6929 5.71921ZM12.3327 5.29251L10.6259 2.73327L11.0525 2.44881L12.7593 5.00804L12.3327 5.29251ZM12.9725 4.86581L11.2658 2.30658L11.6923 2.02211L13.3991 4.58134L12.9725 4.86581Z" fill="#000001"/>
<path fill-rule="evenodd" clip-rule="evenodd" d="M1.98883 10.3423L2.62864 9.91559L1.98883 10.3423ZM10.6262 4.58185L11.3727 4.08403L10.6262 4.58185ZM12.0125 3.65733L12.6523 3.23063L12.0125 3.65733Z" fill="black"/>
<path d="M1.98883 10.3423L2.62864 9.91559M10.6262 4.58185L11.3727 4.08403M12.0125 3.65733L12.6523 3.23063" stroke="white" stroke-width="0.3"/>
</g>
<defs>
<clipPath id="clip0_176_684">
<rect width="14" height="14" rx="7" fill="white"/>
</clipPath>
</defs>
</svg>
