<svg width="14" height="14" viewBox="0 0 14 14" fill="none" xmlns="http://www.w3.org/2000/svg">
<g clip-path="url(#clip0_176_388)">
<path d="M0 0H14V14H0V0Z" fill="#F0F3FA"/>
<mask id="mask0_176_388" style="mask-type:luminance" maskUnits="userSpaceOnUse" x="2" y="4" width="10" height="6">
<path d="M2.5 4H11.5V10H2.5V4Z" fill="white"/>
</mask>
<g mask="url(#mask0_176_388)">
<path fill-rule="evenodd" clip-rule="evenodd" d="M7.124 5.263C7.12316 5.26399 7.12233 5.26499 7.1215 5.266C6.40425 4.34925 5.80425 4 5.08625 4C3.622 4 2.5 5.9115 2.5 7.9355C2.5 9.2015 3.1105 10 4.13325 10C4.8695 10 5.39875 9.652 6.34 8.0015C6.34 8.0015 6.73025 7.31025 7 6.8315V6.8125L7.124 5.263ZM4.17 9.023C4.59475 9.023 4.859 8.7545 5.62225 7.5545C5.62225 7.5545 5.969 7.002 6.54125 6.11975C5.93875 5.2535 5.5445 4.9805 5.07325 4.9805C4.203 4.9805 3.47275 6.483 3.47275 7.9515C3.47275 8.638 3.73275 9.02325 4.17025 9.02325L4.17 9.023Z" fill="url(#paint0_linear_176_388)"/>
<path fill-rule="evenodd" clip-rule="evenodd" d="M7.00373 6.8305L7.12498 5.375L7.11598 5.25875L7.12173 5.266C7.64423 4.5575 8.22098 4 8.95898 4C10.3522 4 11.4995 5.7795 11.5 7.89825C11.5 9.19075 10.9455 10 9.94923 10C9.08098 10 8.60173 9.5105 7.74248 8.0675L7.30098 7.32275C7.20317 7.15776 7.104 6.99359 7.00348 6.83025L7.00373 6.8305ZM7.97448 6.5205L8.50198 7.403C9.32723 8.73525 9.53473 9.023 9.96948 9.02375C10.423 9.02375 10.642 8.6345 10.642 7.96425C10.642 6.2055 9.86673 4.774 8.89723 4.774C8.43073 4.774 8.03848 5.14125 7.56298 5.8775C7.70442 6.08907 7.84161 6.30345 7.97448 6.5205Z" fill="url(#paint1_linear_176_388)"/>
<path d="M7.12174 5.266C7.64424 4.5575 8.22099 4 8.95899 4C10.3522 4 11.4995 5.7795 11.5 7.89825L10.6417 7.96425C10.6417 6.2055 9.86674 4.774 8.89724 4.774C8.43074 4.774 8.03849 5.14125 7.56299 5.8775L7.00199 6.82775C6.78148 7.21909 6.56081 7.61034 6.33999 8.0015C5.39874 9.652 4.86949 10 4.13324 10L4.17024 9.02325C4.59499 9.02325 4.85924 8.7545 5.62249 7.5545C5.62249 7.5545 5.96924 7.002 6.54149 6.11975L7.12174 5.266Z" fill="url(#paint2_linear_176_388)"/>
<path d="M7.97449 6.5205C6.83049 4.654 6.06849 4 5.08599 4L5.07349 4.9805C5.71699 4.9805 6.21574 5.48925 7.30049 7.32225L7.36699 7.43375L7.97449 6.5205Z" fill="#0466E0"/>
</g>
</g>
<defs>
<linearGradient id="paint0_linear_176_388" x1="4.875" y1="4.5" x2="6.375" y2="7.625" gradientUnits="userSpaceOnUse">
<stop stop-color="#0064E0"/>
<stop offset="1" stop-color="#0082FB"/>
</linearGradient>
<linearGradient id="paint1_linear_176_388" x1="10.625" y1="8" x2="7.99998" y2="7" gradientUnits="userSpaceOnUse">
<stop stop-color="#0181FA"/>
<stop offset="1" stop-color="#0967DF"/>
</linearGradient>
<linearGradient id="paint2_linear_176_388" x1="5.62499" y1="7.25" x2="12.25" y2="7.5" gradientUnits="userSpaceOnUse">
<stop stop-color="#0082FB"/>
<stop offset="1" stop-color="#0180F9"/>
</linearGradient>
<clipPath id="clip0_176_388">
<rect width="14" height="14" rx="7" fill="white"/>
</clipPath>
</defs>
</svg>
