<svg width="14" height="14" viewBox="0 0 14 14" fill="none" xmlns="http://www.w3.org/2000/svg">
<g clip-path="url(#clip0_176_309)">
<path d="M0 0H14V14H0V0Z" fill="url(#paint0_linear_176_309)"/>
<path d="M3.02175 6.583C3.02175 6.583 3.94475 5.38325 5.75 5.258V4.7595C3.7505 4.905 2 6.5 2 6.5C2 6.5 2.9995 9.06125 5.75 9.29675V8.83C3.73175 8.59975 3.02175 6.5825 3.02175 6.5825V6.583ZM5.75 7.9025V8.32975C4.2245 8.08325 3.78225 6.64525 3.78225 6.64525C3.78225 6.64525 4.5335 5.86925 5.75 5.75V6.25875C5.749 6.25875 5.75075 6.25875 5.75 6.25875C5.1115 6.18925 4.5915 6.73025 4.5915 6.73025C4.5915 6.73025 4.89 7.6405 5.75 7.9025ZM5.75 4V4.7595C5.80875 4.75525 5.8485 4.752 5.9075 4.75C8.18075 4.6805 9.662 6.4905 9.662 6.4905C9.662 6.4905 7.96075 8.36625 6.1885 8.36625C6.026 8.36625 5.89275 8.35275 5.75 8.32975V8.83C5.87225 8.844 5.98 8.85275 6.112 8.85275C7.76125 8.85275 8.954 8.08875 10.109 7.18475C10.3005 7.324 11.0845 7.66225 11.2455 7.81025C10.1475 8.644 7.588 9.316 6.13725 9.316C5.99725 9.316 5.88225 9.30825 5.75 9.29675V10H12V4H5.75ZM5.75 5.75V5.25825C5.808 5.2545 5.84775 5.25175 5.9075 5.25C7.54225 5.2035 8.61475 6.51375 8.61475 6.51375C8.61475 6.51375 7.49225 8 6.25 8C6.07125 8 5.89425 7.9465 5.75 7.9025V6.25875C6.3865 6.32875 6.4955 6.58375 6.87825 7.162L7.729 6.5115C7.729 6.5115 7.0475 5.75 6 5.75C5.88625 5.75 5.857 5.73975 5.75 5.75Z" fill="#76B900"/>
</g>
<defs>
<linearGradient id="paint0_linear_176_309" x1="2.6045" y1="2.428" x2="17.0367" y2="19.0043" gradientUnits="userSpaceOnUse">
<stop stop-color="#1A1E21"/>
<stop offset="1" stop-color="#06060A"/>
</linearGradient>
<clipPath id="clip0_176_309">
<rect width="14" height="14" rx="7" fill="white"/>
</clipPath>
</defs>
</svg>
