<svg width="14" height="14" viewBox="0 0 14 14" fill="none" xmlns="http://www.w3.org/2000/svg">
<g clip-path="url(#clip0_176_256)">
<path d="M0 0H14V14H0V0Z" fill="#511732"/>
<path d="M1.5 8.625H3.79175V8.01675H2.4305V7.991L3.10625 7.39725C3.66375 6.90475 3.84925 6.65925 3.84925 6.28275V6.2785C3.84925 5.74925 3.37925 5.375 2.69675 5.375C2.01425 5.375 1.5 5.786 1.5 6.371V6.38825H2.135L2.13725 6.36875C2.14625 6.08925 2.37 5.8805 2.70125 5.8805C2.98775 5.8805 3.189 6.06125 3.19125 6.315V6.3195C3.19125 6.5345 3.104 6.68725 2.68775 7.0615L1.5 8.08775V8.625ZM5.43725 8.625C6.25625 8.625 6.75325 7.9695 6.75325 6.982V6.97775C6.75325 5.99025 6.25625 5.375 5.43725 5.375C4.61825 5.375 4.12125 5.99025 4.12125 6.9775V6.982C4.12125 7.9695 4.61825 8.625 5.43725 8.625ZM5.43725 8.06625C5.0345 8.06625 4.804 7.66375 4.804 6.982V6.97775C4.804 6.29575 5.0345 5.8955 5.43725 5.8955C5.84 5.8955 6.0705 6.29575 6.0705 6.97775V6.982C6.0705 7.664 5.84 8.06625 5.43725 8.06625ZM8.3075 8.625C9.12675 8.625 9.6235 7.9695 9.6235 6.982V6.97775C9.6235 5.99025 9.12675 5.375 8.3075 5.375C7.4885 5.375 6.99175 5.99025 6.99175 6.9775V6.982C6.99175 7.9695 7.4885 8.625 8.3075 8.625ZM8.3075 8.06625C7.90475 8.06625 7.67425 7.66375 7.67425 6.982V6.97775C7.67425 6.29575 7.90475 5.8955 8.3075 5.8955C8.7105 5.8955 8.941 6.29575 8.941 6.97775V6.982C8.941 7.664 8.7105 8.06625 8.3075 8.06625ZM11.178 8.625C11.997 8.625 12.5 7.9695 12.5 6.982V6.97775C12.5 5.99025 11.997 5.375 11.178 5.375C10.3588 5.375 9.862 5.99025 9.862 6.9775V6.982C9.862 7.9695 10.3588 8.625 11.178 8.625ZM11.178 8.06625C10.775 8.06625 10.5445 7.66375 10.5445 6.982V6.97775C10.5445 6.29575 10.775 5.8955 11.178 5.8955C11.5805 5.8955 11.8112 6.29575 11.8112 6.97775V6.982C11.8112 7.664 11.5808 8.06625 11.178 8.06625Z" fill="white"/>
</g>
<defs>
<clipPath id="clip0_176_256">
<rect width="14" height="14" rx="7" fill="white"/>
</clipPath>
</defs>
</svg>
