<svg width="14" height="14" viewBox="0 0 14 14" fill="none" xmlns="http://www.w3.org/2000/svg">
<g clip-path="url(#clip0_176_253)">
<path d="M0 0H14V14H0V0Z" fill="#1DA8DC"/>
<path fill-rule="evenodd" clip-rule="evenodd" d="M1 6V5.5H1.5V6H1ZM1 8.25V6.25H1.5V8.25H1ZM5.75 8.25V6.95C5.75 6.5 5.495 6.2475 5.145 6.2475C4.92 6.245 4.6325 6.3625 4.5 6.56V5.5H4V8.25H4.5V7.1C4.5 6.875 4.695 6.75 4.8875 6.7475C5.07 6.7475 5.25 6.855 5.25 7.0925V8.25H5.75ZM9.905 7.34H11.19C11.205 7.255 11.2125 7.1675 11.21 7.08C11.21 6.4925 10.8675 6.0975 10.2775 6.0975C9.6875 6.0975 9.315 6.5475 9.315 7.165C9.315 7.835 9.7 8.25 10.3575 8.25C10.5086 8.25596 10.6592 8.22756 10.7977 8.16693C10.9363 8.10631 11.0593 8.01504 11.1575 7.9L10.815 7.515C10.695 7.6525 10.5275 7.7275 10.355 7.7225C10.075 7.7225 9.9275 7.555 9.905 7.34ZM10.28 6.59C10.5 6.59 10.6275 6.7325 10.64 6.945H9.905C9.93 6.7325 10.06 6.59 10.28 6.59ZM11.28 7.9C11.5 8.125 11.88 8.25 12.165 8.25C12.6525 8.25 13.0025 8.03 13 7.575C13 7.17 12.725 7.0475 12.4625 6.965L12.275 6.915C12.2 6.895 12.1325 6.8775 12.08 6.86C11.97 6.82 11.925 6.78 11.925 6.715C11.925 6.635 12.0075 6.58 12.155 6.58C12.3175 6.58 12.52 6.635 12.6625 6.7875L12.9925 6.4125C12.8816 6.30753 12.7508 6.2258 12.6078 6.17213C12.4649 6.11847 12.3126 6.09394 12.16 6.1C11.67 6.1 11.3775 6.3425 11.3775 6.7375C11.3775 7.1625 11.6525 7.2875 11.9275 7.375C11.9925 7.3975 12.065 7.415 12.1325 7.4325C12.195 7.4475 12.2525 7.46 12.2975 7.475C12.4075 7.5125 12.4475 7.55 12.4475 7.615C12.4475 7.7025 12.365 7.75 12.165 7.75C11.9575 7.75 11.7575 7.67 11.6075 7.515L11.2825 7.9H11.28ZM7.86 7.7625C7.8925 7.7625 7.9225 7.7575 7.955 7.75V8.18C7.8475 8.225 7.735 8.2475 7.62 8.2475C7.4625 8.2475 7.32 8.1775 7.245 7.9775C7.16782 8.06478 7.07268 8.13432 6.96609 8.18136C6.8595 8.2284 6.74399 8.25181 6.6275 8.25C6.245 8.25 6 8.035 6 7.6275C6 7.2275 6.295 6.99 6.75 6.99C6.9 6.99 7.1025 7.01 7.25 7.05V6.985C7.25 6.755 7.0325 6.62 6.7825 6.62C6.615 6.625 6.455 6.695 6.3275 6.82L6.0075 6.4475C6.23522 6.23535 6.53632 6.11975 6.8475 6.125C7.3875 6.125 7.75 6.39 7.75 6.925V7.65C7.75 7.725 7.785 7.765 7.86 7.765V7.7625ZM6.88 7.34C6.9875 7.3425 7.145 7.3575 7.25 7.385V7.52C7.25 7.7075 7.035 7.83 6.85 7.83C6.67 7.83 6.585 7.73 6.585 7.5925C6.585 7.4475 6.6825 7.3425 6.88 7.3425V7.34ZM9.0975 6.1775C9.2075 6.1725 9.3125 6.22 9.3875 6.31L9.1575 6.8175C9.10157 6.77062 9.03046 6.74573 8.9575 6.7475C8.8125 6.7475 8.6525 6.9075 8.6525 7.1575V8.25H8.1525V6.25H8.6525V6.5025C8.7525 6.3075 8.91 6.1775 9.0975 6.1775ZM2.75 6C2.9625 5.9925 3.1675 6.135 3.3075 6.3125L3.7125 5.9425C3.47 5.6075 3.135 5.5 2.77 5.5C2.195 5.5 1.8425 5.81 1.8425 6.2875C1.8425 6.7975 2.2025 7.0075 2.6175 7.1375L2.6725 7.1525C3.0325 7.265 3.1825 7.31 3.1825 7.4775C3.1825 7.595 3.0825 7.75 2.795 7.75C2.5525 7.75 2.315 7.6125 2.1575 7.38L1.75 7.755C1.985 8.1075 2.35 8.25 2.8 8.25C3.33 8.25 3.75 7.99 3.75 7.43C3.75 6.8975 3.315 6.7325 2.93 6.6125C2.58 6.505 2.4 6.4425 2.4 6.265C2.4 6.135 2.52 6 2.75 6Z" fill="black"/>
</g>
<defs>
<clipPath id="clip0_176_253">
<rect width="14" height="14" rx="7" fill="white"/>
</clipPath>
</defs>
</svg>
