<svg width="14" height="14" viewBox="0 0 14 14" fill="none" xmlns="http://www.w3.org/2000/svg">
<g clip-path="url(#clip0_358_5)">
<path d="M0 0H14V14H0V0Z" fill="#2962FF"/>
<path fill-rule="evenodd" clip-rule="evenodd" d="M6.9875 10.475C7.72 10.475 8.3975 10.25 8.9575 9.865C9.0825 9.99499 9.2275 10.105 9.39 10.185C8.79763 10.6315 8.09251 10.904 7.35382 10.972C6.61514 11.0399 5.87214 10.9006 5.20825 10.5696C4.54436 10.2387 3.98588 9.72923 3.59551 9.09845C3.20515 8.46767 2.99835 7.74055 2.99835 6.99875C2.99835 6.25694 3.20515 5.52983 3.59551 4.89904C3.98588 4.26826 4.54436 3.75879 5.20825 3.42784C5.87214 3.09689 6.61514 2.95757 7.35382 3.02552C8.09251 3.09347 8.79763 3.36599 9.39 3.8125C9.2279 3.89464 9.0815 4.00465 8.9575 4.1375C8.50865 3.8294 7.99368 3.63107 7.45412 3.5585C6.91455 3.48594 6.36549 3.54116 5.85118 3.71972C5.33687 3.89828 4.87172 4.19519 4.49321 4.5865C4.1147 4.97782 3.83343 5.45259 3.67207 5.97255C3.51071 6.49251 3.47378 7.04311 3.56425 7.57996C3.65472 8.11681 3.87006 8.6249 4.19291 9.06326C4.51577 9.50162 4.93711 9.85799 5.42296 10.1036C5.90881 10.3493 6.44558 10.4773 6.99 10.4775L6.9875 10.475ZM9.75 4.9075C9.7124 4.90733 9.67525 4.91564 9.64131 4.93182C9.60737 4.94799 9.57751 4.97162 9.55397 5.00093C9.53042 5.03024 9.51379 5.06449 9.50531 5.10112C9.49683 5.13775 9.49673 5.17582 9.505 5.2125C9.51352 5.25132 9.53117 5.28755 9.55649 5.31818C9.58181 5.34882 9.61408 5.37298 9.6506 5.38865C9.68712 5.40432 9.72686 5.41106 9.76651 5.40831C9.80616 5.40556 9.84458 5.39339 9.87859 5.37282C9.9126 5.35224 9.94121 5.32386 9.96205 5.29002C9.9829 5.25618 9.99537 5.21785 9.99844 5.17823C10.0015 5.1386 9.99509 5.09881 9.97971 5.06216C9.96433 5.02551 9.94043 4.99306 9.91 4.9675C9.86537 4.92932 9.80872 4.90808 9.75 4.9075ZM9 5.1575C9 5.2725 9.025 5.3825 9.07 5.4775L8.62 5.75H5.5C5.4337 5.75 5.37011 5.77633 5.32322 5.82322C5.27634 5.8701 5.25 5.93369 5.25 6C5.25 6.0663 5.27634 6.12989 5.32322 6.17677C5.37011 6.22366 5.4337 6.25 5.5 6.25H8.7575L9.435 5.84C9.58214 5.90809 9.74737 5.92667 9.90596 5.89296C10.0645 5.85924 10.2079 5.77505 10.3146 5.65299C10.4214 5.53093 10.4856 5.37757 10.4979 5.21591C10.5101 5.05424 10.4696 4.89296 10.3825 4.75624C10.2953 4.61953 10.1662 4.51472 10.0145 4.45754C9.8628 4.40036 9.69664 4.39388 9.54094 4.43908C9.38524 4.48427 9.24837 4.5787 9.15085 4.70822C9.05333 4.83773 9.0004 4.99537 9 5.1575ZM9.9175 6.75C9.97647 6.58319 10.0925 6.44261 10.2451 6.35309C10.3977 6.26357 10.5771 6.23088 10.7514 6.2608C10.9258 6.29071 11.084 6.38131 11.198 6.51658C11.3121 6.65185 11.3746 6.82307 11.3746 7C11.3746 7.17692 11.3121 7.34814 11.198 7.48341C11.084 7.61868 10.9258 7.70928 10.7514 7.73919C10.5771 7.76911 10.3977 7.73642 10.2451 7.6469C10.0925 7.55738 9.97647 7.4168 9.9175 7.25H5C4.9337 7.25 4.87011 7.22366 4.82322 7.17677C4.77634 7.12989 4.75 7.0663 4.75 7C4.75 6.93369 4.77634 6.8701 4.82322 6.82322C4.87011 6.77633 4.9337 6.75 5 6.75H9.9175ZM9.505 8.795C9.51208 8.75492 9.52883 8.71718 9.55381 8.68505C9.57879 8.65292 9.61123 8.62738 9.64832 8.61063C9.68541 8.59389 9.72602 8.58645 9.76664 8.58896C9.80726 8.59148 9.84665 8.60387 9.88139 8.62507C9.91613 8.64626 9.94517 8.67561 9.96599 8.71058C9.98681 8.74554 9.99878 8.78506 10.0009 8.82571C10.0029 8.86635 9.99507 8.90688 9.97793 8.94379C9.96079 8.9807 9.93489 9.01287 9.9025 9.0375C9.86252 9.06883 9.81395 9.08724 9.76324 9.09028C9.71254 9.09332 9.66211 9.08085 9.61868 9.05451C9.57524 9.02818 9.54086 8.98924 9.5201 8.94288C9.49935 8.89652 9.49321 8.84493 9.5025 8.795H9.505ZM9.0675 8.52999C9.0144 8.64426 8.99105 8.77008 8.99961 8.89579C9.00817 9.02149 9.04836 9.14299 9.11646 9.249C9.18455 9.35501 9.27834 9.44209 9.3891 9.50214C9.49986 9.56219 9.62401 9.59327 9.75 9.59249C9.86198 9.59157 9.97234 9.56559 10.073 9.51644C10.1736 9.46729 10.2619 9.39624 10.3315 9.30848C10.4011 9.22073 10.4501 9.11851 10.475 9.00933C10.5 8.90014 10.5001 8.78677 10.4755 8.67752C10.4508 8.56828 10.402 8.46594 10.3327 8.37801C10.2633 8.29009 10.1751 8.21881 10.0746 8.16942C9.97413 8.12002 9.86383 8.09376 9.75185 8.09256C9.63987 8.09137 9.52904 8.11526 9.4275 8.1625L8.75 7.75H5.5C5.4337 7.75 5.37011 7.77633 5.32322 7.82322C5.27634 7.8701 5.25 7.93369 5.25 8C5.25 8.0663 5.27634 8.12989 5.32322 8.17677C5.37011 8.22366 5.4337 8.25 5.5 8.25H8.61L9.0675 8.52999ZM10.875 7C10.875 7.06564 10.8489 7.12859 10.8025 7.175C10.7561 7.22142 10.6931 7.2475 10.6275 7.2475C10.5619 7.2475 10.4989 7.22142 10.4525 7.175C10.4061 7.12859 10.38 7.06564 10.38 7C10.38 6.93435 10.4061 6.8714 10.4525 6.82499C10.4989 6.77857 10.5619 6.7525 10.6275 6.7525C10.6931 6.7525 10.7561 6.77857 10.8025 6.82499C10.8489 6.8714 10.875 6.93435 10.875 7Z" fill="white"/>
</g>
<defs>
<clipPath id="clip0_358_5">
<rect width="14" height="14" rx="7" fill="white"/>
</clipPath>
</defs>
</svg>
