<svg width="14" height="14" viewBox="0 0 14 14" fill="none" xmlns="http://www.w3.org/2000/svg">
<g clip-path="url(#clip0_176_403)">
<path d="M0 0H14V14H0V0Z" fill="#E82127"/>
<path d="M7 11.5L8.125 5.25C9.19175 5.25 9.5235 5.268 9.572 5.7475C9.572 5.7475 10.2877 5.4795 10.6485 4.935C9.24025 4.28 7.825 4.25 7.825 4.25L7 5.25L6.175 4.25C6.175 4.25 4.76 4.2795 3.35175 4.935C3.71225 5.47925 4.42825 5.7475 4.42825 5.7475C4.477 5.2675 4.8155 5.25075 5.875 5.25L7 11.5Z" fill="white"/>
<path d="M7 3.98675C8.1385 3.978 9.416 4.166 10.75 4.75C10.9282 4.4275 11 4.25 11 4.25C9.54175 3.6705 8.176 3.505 7 3.5C5.82375 3.505 4.45825 3.6705 3 4.25C3 4.25 3.091 4.46075 3.25 4.75C4.58375 4.166 5.8615 3.978 7 3.98675Z" fill="white"/>
</g>
<defs>
<clipPath id="clip0_176_403">
<rect width="14" height="14" rx="7" fill="white"/>
</clipPath>
</defs>
</svg>
