<svg width="14" height="14" viewBox="0 0 14 14" fill="none" xmlns="http://www.w3.org/2000/svg">
<g clip-path="url(#clip0_177_24)">
<path d="M0 0H14V14H0" fill="#BD3D44"/>
<path d="M0 1.53958H14H0ZM0 3.68916H14H0ZM0 5.8475H14H0ZM0 8.00583H14H0ZM0 10.1642H14H0ZM0 12.3225H14H0Z" fill="black"/>
<path d="M0 1V2.07917H14V1H0ZM0 3.14958V4.22875H14V3.14958H0ZM0 5.30792V6.38708H14V5.30792H0ZM0 7.46625V8.54542H14V7.46625H0ZM0 9.62458V10.7038H14V9.62458H0ZM0 11.7829V12.8621H14V11.7829H0Z" fill="white"/>
<path d="M-3 0H7V7.5H-3" fill="#192F5D"/>
<path d="M6.1557 6.32495L6.40242 7.10832L5.77193 6.61509H6.53948L5.90899 7.10832L6.1557 6.32495ZM4.51097 6.32495L4.75768 7.10832L4.1272 6.61509H4.89474L4.26426 7.10832L4.51097 6.32495ZM2.83882 6.32495L3.08553 7.10832L2.45505 6.61509H3.22259L2.59211 7.10832L2.83882 6.32495ZM1.16667 6.32495L1.41338 7.10832L0.782897 6.61509H1.55044L0.919959 7.10832L1.16667 6.32495ZM-0.50548 6.32495L-0.25877 7.10832L-0.889252 6.61509H-0.121708L-0.752191 7.10832L-0.50548 6.32495ZM-2.17763 6.32495L-1.93092 7.10832L-2.5614 6.61509H-1.79386L-2.42434 7.10832L-2.17763 6.32495ZM5.33334 5.5706L5.58005 6.35397L4.94956 5.86074H5.71711L5.08663 6.35397L5.33334 5.5706ZM3.66119 5.5706L3.9079 6.35397L3.27741 5.86074H4.04496L3.41448 6.35397L3.66119 5.5706ZM2.01645 5.5706L2.26316 6.35397L1.63268 5.86074H2.40022L1.76974 6.35397L2.01645 5.5706ZM0.344301 5.5706L0.591011 6.35397L-0.0394714 5.86074H0.728072L0.09759 6.35397L0.344301 5.5706ZM-1.32785 5.5706L-1.08114 6.35397L-1.71162 5.86074H-0.944077L-1.57456 6.35397L-1.32785 5.5706ZM6.1557 4.81625L6.40242 5.59962L5.77193 5.10639H6.53948L5.90899 5.59962L6.1557 4.81625ZM4.51097 4.81625L4.75768 5.59962L4.1272 5.10639H4.89474L4.26426 5.59962L4.51097 4.81625ZM2.83882 4.81625L3.08553 5.59962L2.45505 5.10639H3.22259L2.59211 5.59962L2.83882 4.81625ZM1.16667 4.81625L1.41338 5.59962L0.782897 5.10639H1.55044L0.919959 5.59962L1.16667 4.81625ZM-0.50548 4.81625L-0.25877 5.59962L-0.889252 5.10639H-0.121708L-0.752191 5.59962L-0.50548 4.81625ZM-2.17763 4.81625L-1.93092 5.59962L-2.5614 5.10639H-1.79386L-2.42434 5.59962L-2.17763 4.81625ZM5.33334 4.09091L5.58005 4.87428L4.94956 4.38105H5.71711L5.08663 4.87428L5.33334 4.09091ZM3.66119 4.09091L3.9079 4.87428L3.27741 4.38105H4.04496L3.41448 4.87428L3.66119 4.09091ZM2.01645 4.09091L2.26316 4.87428L1.63268 4.38105H2.40022L1.76974 4.87428L2.01645 4.09091ZM0.344301 4.09091L0.591011 4.87428L-0.0394714 4.38105H0.728072L0.09759 4.87428L0.344301 4.09091ZM-1.32785 4.09091L-1.08114 4.87428L-1.71162 4.38105H-0.944077L-1.57456 4.87428L-1.32785 4.09091ZM6.1557 3.33656L6.40242 4.11993L5.77193 3.6267H6.53948L5.90899 4.11993L6.1557 3.33656ZM4.51097 3.33656L4.75768 4.11993L4.1272 3.6267H4.89474L4.26426 4.11993L4.51097 3.33656ZM2.83882 3.33656L3.08553 4.11993L2.45505 3.6267H3.22259L2.59211 4.11993L2.83882 3.33656ZM1.16667 3.33656L1.41338 4.11993L0.782897 3.6267H1.55044L0.919959 4.11993L1.16667 3.33656ZM-0.50548 3.33656L-0.25877 4.11993L-0.889252 3.6267H-0.121708L-0.752191 4.11993L-0.50548 3.33656ZM-2.17763 3.33656L-1.93092 4.11993L-2.5614 3.6267H-1.79386L-2.42434 4.11993L-2.17763 3.33656ZM5.33334 2.58221L5.58005 3.36557L4.94956 2.87234H5.71711L5.08663 3.36557L5.33334 2.58221ZM3.66119 2.58221L3.9079 3.36557L3.27741 2.87234H4.04496L3.41448 3.36557L3.66119 2.58221ZM2.01645 2.58221L2.26316 3.36557L1.63268 2.87234H2.40022L1.76974 3.36557L2.01645 2.58221ZM0.344301 2.58221L0.591011 3.36557L-0.0394714 2.87234H0.728072L0.09759 3.36557L0.344301 2.58221ZM-1.32785 2.58221L-1.08114 3.36557L-1.71162 2.87234H-0.944077L-1.57456 3.36557L-1.32785 2.58221ZM6.1557 1.82786L6.40242 2.61122L5.77193 2.11799H6.53948L5.90899 2.61122L6.1557 1.82786ZM4.51097 1.82786L4.75768 2.61122L4.1272 2.11799H4.89474L4.26426 2.61122L4.51097 1.82786ZM2.83882 1.82786L3.08553 2.61122L2.45505 2.11799H3.22259L2.59211 2.61122L2.83882 1.82786ZM1.16667 1.82786L1.41338 2.61122L0.782897 2.11799H1.55044L0.919959 2.61122L1.16667 1.82786ZM-0.50548 1.82786L-0.25877 2.61122L-0.889252 2.11799H-0.121708L-0.752191 2.61122L-0.50548 1.82786ZM-2.17763 1.82786L-1.93092 2.61122L-2.5614 2.11799H-1.79386L-2.42434 2.61122L-2.17763 1.82786ZM5.33334 1.0735L5.58005 1.85687L4.94956 1.36364H5.71711L5.08663 1.85687L5.33334 1.0735ZM3.66119 1.0735L3.9079 1.85687L3.27741 1.36364H4.04496L3.41448 1.85687L3.66119 1.0735ZM2.01645 1.0735L2.26316 1.85687L1.63268 1.36364H2.40022L1.76974 1.85687L2.01645 1.0735ZM0.344301 1.0735L0.591011 1.85687L-0.0394714 1.36364H0.728072L0.09759 1.85687L0.344301 1.0735ZM-1.32785 1.0735L-1.08114 1.85687L-1.71162 1.36364H-0.944077L-1.57456 1.85687L-1.32785 1.0735ZM6.1557 0.319153L6.40242 1.10252L5.77193 0.609288H6.53948L5.90899 1.10252L6.1557 0.319153ZM4.51097 0.319153L4.75768 1.10252L4.1272 0.609288H4.89474L4.26426 1.10252L4.51097 0.319153ZM2.83882 0.319153L3.08553 1.10252L2.45505 0.609288H3.22259L2.59211 1.10252L2.83882 0.319153ZM1.16667 0.319153L1.41338 1.10252L0.782897 0.609288H1.55044L0.919959 1.10252L1.16667 0.319153ZM-0.50548 0.319153L-0.25877 1.10252L-0.889252 0.609288H-0.121708L-0.752191 1.10252L-0.50548 0.319153ZM-2.17763 0.319153L-1.93092 1.10252L-2.5614 0.609288H-1.79386L-2.42434 1.10252L-2.17763 0.319153Z" fill="white"/>
</g>
<defs>
<clipPath id="clip0_177_24">
<rect width="14" height="14" rx="7" fill="white"/>
</clipPath>
</defs>
</svg>
